<svg width="108" height="20" viewBox="0 0 108 20" fill="none" xmlns="http://www.w3.org/2000/svg">
<g clip-path="url(#clip0_908_4778)">
<path d="M89.837 7.3611C90.1174 7.53332 90.5702 7.66666 90.9606 7.60369C91.3509 7.54073 91.6995 7.33147 91.9288 7.02221L93.1869 5.62221C92.3892 4.9574 91.4229 4.43332 90.286 4.04443C89.1492 3.6574 88.0048 3.46295 86.8528 3.46295C84.401 3.46295 82.3641 4.16851 80.7403 5.57962C79.1166 6.99073 78.3037 8.74814 78.3037 10.85C78.3037 12.9518 79.0938 14.7333 80.674 16.1518C82.2542 17.5704 84.2248 18.2778 86.5875 18.2778C87.6656 18.2778 88.7987 18.1018 89.9867 17.7481C91.1747 17.3944 92.1902 16.9426 93.0315 16.3889V10.7241H91.1368C90.4888 10.7241 89.8806 11.1185 89.6759 11.7648C89.6342 11.8963 89.621 12.0333 89.621 12.1685V14.4796C88.6168 14.95 87.7016 15.1852 86.8755 15.1852C85.5909 15.1852 84.5128 14.7704 83.6431 13.9407C82.7715 13.1111 82.3357 12.0796 82.3357 10.85C82.3357 9.62036 82.7677 8.61295 83.6317 7.78888C84.4957 6.96666 85.5625 6.55369 86.8319 6.55369C87.5557 6.55369 88.2852 6.69628 89.0241 6.97962C89.3102 7.08888 89.5793 7.21851 89.8389 7.35925" fill="#101820"/>
<path d="M108 16.8389C108 16.2056 107.583 15.6111 106.901 15.4111C106.761 15.3704 106.615 15.3574 106.469 15.3574H99.6633V12.3944H107.053V9.43148H99.6633V6.46852H106.28C106.426 6.46852 106.571 6.45555 106.712 6.41481C107.394 6.21481 107.811 5.62222 107.811 4.98704V3.50555H95.8738V18.3204H108V16.8407V16.8389Z" fill="#101820"/>
<path d="M40.9263 3.50372C40.5247 3.50372 40.1381 3.65743 39.8539 3.9315C39.5697 4.20557 39.4106 4.5778 39.4106 4.96669V12.6834L32.4057 3.50372H28.9895V18.3185H31.0737C31.4754 18.3185 31.86 18.163 32.1442 17.8852C32.4284 17.6074 32.5876 17.2296 32.5876 16.8371V9.08335L39.528 18.3185H41.4929C41.8946 18.3185 42.2811 18.1648 42.5653 17.8908C42.8495 17.6167 43.0087 17.2445 43.0087 16.8556V3.50372H40.9245H40.9263Z" fill="#101820"/>
<path d="M26.337 16.95C26.337 16.3241 25.9201 15.737 25.2361 15.5389C25.0978 15.4981 24.9519 15.4852 24.806 15.4852H17.9982V12.3759H25.3877V9.45H17.9982V6.52407H24.6165C24.7605 6.52407 24.9064 6.51111 25.0466 6.47037C25.7306 6.27222 26.1456 5.68703 26.1456 5.06111V3.59814H14.2087V18.413H26.3351V16.9518L26.337 16.95Z" fill="#101820"/>
<path d="M57.2476 7.36482C57.528 7.53705 57.9809 7.67038 58.3712 7.60742C58.7615 7.54445 59.1101 7.33519 59.3394 7.02593L60.5975 5.62593C59.7998 4.96112 58.8335 4.43705 57.6967 4.04816C56.5598 3.66112 55.4154 3.46667 54.2634 3.46667C51.8116 3.46667 49.7748 4.17223 48.151 5.58334C46.5272 6.99445 45.7144 8.75186 45.7144 10.8537C45.7144 12.9556 46.5045 14.737 48.0847 16.1556C49.6649 17.5741 51.6354 18.2815 53.9981 18.2815C55.0762 18.2815 56.2093 18.1056 57.3973 17.7519C58.5853 17.3982 59.6009 16.9463 60.4421 16.3926V10.7278H58.5474C57.8994 10.7278 57.2912 11.1222 57.0866 11.7685C57.0449 11.9 57.0316 12.037 57.0316 12.1722V14.4833C56.0274 14.9537 55.1123 15.1889 54.2861 15.1889C53.0015 15.1889 51.9234 14.7741 51.0537 13.9445C50.1821 13.1148 49.7464 12.0833 49.7464 10.8537C49.7464 9.62408 50.1784 8.61667 51.0424 7.7926C51.9064 6.97038 52.9731 6.55742 54.2426 6.55742C54.9664 6.55742 55.6958 6.70001 56.4348 6.98334C56.7209 7.0926 56.9899 7.22223 57.2495 7.36297" fill="#101820"/>
<path d="M72.0057 3.49445H68.1007L68.076 3.55741L61.7495 18.2944C62.5946 18.3 64.9744 18.2778 65.088 18.2389C66.0392 17.913 66.3556 16.8778 66.7497 16.013L67.1817 14.9889H72.9038L73.3358 16.0148C73.7375 16.8944 74.0596 17.9481 75.0278 18.2796C75.1434 18.3185 77.5744 18.3093 78.4251 18.2944M68.4114 12.0222L70.0636 8.1L71.7158 12.0222H68.4114Z" fill="#101820"/>
<path d="M7.14124 0.0407104H7.06734C5.77892 0.0407104 4.73682 1.10367 4.73682 2.41478V17.6259C4.73682 18.937 5.78082 20 7.06734 20H9.47366V2.41478C9.47366 1.10367 8.42966 0.0407104 7.14124 0.0407104Z" fill="#7C5CCB"/>
<path d="M7.16393 0V0.0037037C6.57845 -0.0185185 5.98161 0.168519 5.49656 0.583333L0.87719 4.52778C-0.153547 5.40741 -0.297547 6.96296 0.558874 8C1.4153 9.03704 2.94435 9.16481 3.97698 8.28518L8.59635 4.34259C8.66266 4.28704 8.72519 4.22778 8.78393 4.16667L9.4755 3.54815V0H7.16582H7.16393Z" fill="#9F88FF"/>
</g>
<defs>
<clipPath id="clip0_908_4778">
<rect width="108" height="20" fill="white"/>
</clipPath>
</defs>
</svg>
