<svg width="277" height="32" viewBox="0 0 277 32" fill="none" xmlns="http://www.w3.org/2000/svg">
<path d="M15.9996 0L18.9939 3.85158L23.4352 1.8327L24.2966 6.63463L29.1673 6.91096L27.6985 11.5632L31.8829 14.0714L28.4204 17.5082L30.9599 21.6737L26.2968 23.1076L26.6096 27.9762L21.8142 27.0788L19.8287 31.5351L15.9996 28.512L12.1705 31.5351L10.185 27.0788L5.38959 27.9762L5.70238 23.1076L1.03929 21.6737L3.57878 17.5082L0.116211 14.0714L4.30063 11.5632L2.83181 6.91096L7.70256 6.63463L8.56398 1.8327L13.0053 3.85158L15.9996 0Z" fill="#01C853"/>
<path fill-rule="evenodd" clip-rule="evenodd" d="M22.4401 12.8367L14.0813 21.1955L9.5625 16.6767L10.9201 15.319L14.0813 18.4802L21.0825 11.479L22.4401 12.8367Z" fill="white"/>
<path d="M43.9123 25L38.9521 7.54545H42.668L45.6851 20.0227H45.8385L49.1112 7.54545H52.3839L55.6567 20.0398H55.8101L58.8271 7.54545H62.543L57.5828 25H54.2248L50.8158 13.1705H50.6794L47.2703 25H43.9123ZM67.8825 17.3807V25H64.5247V7.54545H67.7973V14.1761H67.9507C68.2518 13.4205 68.7291 12.8267 69.3825 12.3949C70.0359 11.9574 70.8598 11.7386 71.8541 11.7386C72.7632 11.7386 73.5558 11.9318 74.2319 12.3182C74.9138 12.7045 75.4422 13.267 75.8172 14.0057C76.1922 14.7386 76.3768 15.625 76.3711 16.6648V25H73.0132V17.2273C73.0189 16.3807 72.8058 15.7244 72.374 15.2585C71.9422 14.7869 71.3371 14.5511 70.5586 14.5511C70.0416 14.5511 69.5814 14.6619 69.178 14.8835C68.7746 15.1051 68.4592 15.429 68.2319 15.8551C68.0047 16.2756 67.8882 16.7841 67.8825 17.3807ZM83.1105 25.2557C82.281 25.2557 81.5366 25.108 80.8775 24.8125C80.2185 24.517 79.6986 24.0795 79.3179 23.5C78.9372 22.9148 78.7469 22.1932 78.7469 21.3352C78.7469 20.6023 78.8804 19.9915 79.1474 19.5028C79.4202 19.0142 79.7895 18.6222 80.2554 18.3267C80.7213 18.0312 81.2497 17.8068 81.8406 17.6534C82.4315 17.5 83.048 17.392 83.69 17.3295C84.4571 17.25 85.0764 17.1761 85.548 17.108C86.0196 17.0398 86.3605 16.9347 86.5707 16.7926C86.7866 16.6506 86.8946 16.4375 86.8946 16.1534V16.1023C86.8946 15.5114 86.7156 15.054 86.3577 14.7301C85.9997 14.4062 85.4855 14.2443 84.815 14.2443C84.1105 14.2443 83.5508 14.3977 83.1361 14.7045C82.727 15.0114 82.4514 15.3864 82.3094 15.8295L79.19 15.4886C79.3889 14.6932 79.744 14.017 80.2554 13.4602C80.7667 12.8977 81.4088 12.4716 82.1815 12.1818C82.9599 11.8864 83.8378 11.7386 84.815 11.7386C85.4969 11.7386 86.1588 11.8182 86.8008 11.9773C87.4486 12.1364 88.031 12.3892 88.548 12.7358C89.0707 13.0824 89.4856 13.5426 89.7924 14.1165C90.0992 14.6847 90.2525 15.3807 90.2525 16.2045V25H87.048V23.1932H86.9457C86.7469 23.5795 86.4741 23.929 86.1275 24.2415C85.7866 24.554 85.3633 24.8011 84.8577 24.983C84.3577 25.1648 83.7753 25.2557 83.1105 25.2557ZM84.0309 22.8693C84.6105 22.8693 85.1162 22.7557 85.548 22.5284C85.9798 22.2955 86.315 21.9858 86.5537 21.5994C86.7923 21.2131 86.9117 20.7841 86.9117 20.3125V18.8466C86.8095 18.9205 86.6503 18.9915 86.4344 19.0597C86.2241 19.1222 85.9856 19.179 85.7186 19.2301C85.4572 19.2756 85.1957 19.3182 84.9344 19.358C84.673 19.3977 84.44 19.4318 84.2355 19.4602C83.7923 19.5227 83.4003 19.625 83.0594 19.767C82.7185 19.9034 82.4514 20.0937 82.2582 20.3381C82.065 20.5767 81.9686 20.8807 81.9686 21.25C81.9686 21.7784 82.1616 22.1818 82.548 22.4602C82.94 22.733 83.4344 22.8693 84.0309 22.8693ZM99.9622 11.9091V14.4659H92.2575V11.9091H99.9622ZM94.0815 8.7727H97.4393V21.0199C97.4393 21.3949 97.4961 21.6847 97.6098 21.8892C97.7291 22.0881 97.8854 22.2273 98.0785 22.3068C98.2774 22.3807 98.5018 22.4176 98.7518 22.4176C98.9336 22.4176 99.107 22.4034 99.2718 22.375C99.4423 22.3409 99.5701 22.3153 99.6553 22.2983L100.201 24.8551C100.031 24.9119 99.786 24.9744 99.4678 25.0426C99.1497 25.1165 98.7632 25.1619 98.3086 25.179C97.4848 25.2074 96.7547 25.0909 96.1183 24.8295C95.4819 24.5625 94.9819 24.1534 94.6183 23.6023C94.2547 23.0455 94.0758 22.3494 94.0815 21.5142V8.7727ZM112.855 15.5057L109.787 15.7614C109.719 15.4773 109.588 15.2159 109.395 14.9773C109.207 14.733 108.955 14.5398 108.636 14.3977C108.318 14.25 107.935 14.1761 107.486 14.1761C106.884 14.1761 106.378 14.304 105.969 14.5597C105.56 14.8153 105.355 15.1534 105.355 15.5739C105.355 15.9205 105.489 16.2074 105.756 16.4347C106.023 16.6619 106.474 16.8466 107.111 16.9886L109.412 17.4659C110.668 17.7273 111.602 18.1477 112.216 18.7273C112.835 19.3068 113.145 20.0682 113.145 21.0114C113.145 21.8523 112.901 22.5909 112.412 23.2273C111.923 23.8636 111.25 24.3608 110.392 24.7188C109.534 25.0767 108.548 25.2557 107.435 25.2557C105.77 25.2557 104.435 24.9062 103.429 24.2074C102.429 23.5085 101.838 22.5455 101.656 21.3182L104.946 21.0795C105.071 21.6364 105.347 22.0597 105.773 22.3494C106.205 22.6392 106.759 22.7841 107.435 22.7841C108.122 22.7841 108.673 22.6477 109.088 22.375C109.509 22.0966 109.719 21.75 109.719 21.3352C109.719 20.983 109.577 20.6932 109.293 20.4659C109.014 20.233 108.582 20.0568 107.997 19.9375L105.747 19.4773C104.48 19.2159 103.54 18.7727 102.926 18.1477C102.318 17.5227 102.014 16.7273 102.014 15.7614C102.014 14.9375 102.239 14.2244 102.688 13.6222C103.142 13.0199 103.776 12.5568 104.588 12.233C105.406 11.9034 106.355 11.7386 107.435 11.7386C109.031 11.7386 110.287 12.0767 111.202 12.7528C112.122 13.429 112.673 14.3466 112.855 15.5057ZM118.299 25H114.634L120.719 7.54545H125.049L131.134 25H127.469L122.952 11.3295H122.816L118.299 25ZM118.231 18.1477H127.504V20.858H118.231V18.1477ZM133.22 29.9091V11.9091H136.527V14.0909H136.697C136.857 13.7557 137.084 13.4062 137.379 13.0426C137.68 12.679 138.075 12.3722 138.564 12.1222C139.058 11.8665 139.68 11.7386 140.43 11.7386C141.413 11.7386 142.311 11.9915 143.124 12.4972C143.936 13.0028 144.581 13.7557 145.058 14.7557C145.541 15.7557 145.783 16.9943 145.783 18.4716C145.783 19.9205 145.547 21.1477 145.075 22.1534C144.609 23.1534 143.97 23.9148 143.158 24.4375C142.351 24.9602 141.442 25.2216 140.43 25.2216C139.703 25.2216 139.092 25.1023 138.598 24.8636C138.109 24.6193 137.712 24.321 137.405 23.9688C137.098 23.6108 136.862 23.2614 136.697 22.9205H136.578V29.9091H133.22ZM136.51 18.4545C136.51 19.267 136.624 19.9773 136.851 20.5852C137.084 21.1932 137.416 21.6676 137.848 22.0085C138.28 22.3437 138.805 22.5114 139.425 22.5114C140.061 22.5114 140.595 22.3381 141.027 21.9915C141.464 21.6449 141.794 21.1676 142.016 20.5597C142.243 19.946 142.357 19.2443 142.357 18.4545C142.357 17.6705 142.246 16.9773 142.024 16.375C141.803 15.7727 141.473 15.3011 141.036 14.9602C140.604 14.6193 140.067 14.4489 139.425 14.4489C138.8 14.4489 138.271 14.6136 137.839 14.9432C137.408 15.2727 137.078 15.7386 136.851 16.3409C136.624 16.9375 136.51 17.642 136.51 18.4545ZM148.314 29.9091V11.9091H151.621V14.0909H151.791C151.95 13.7557 152.178 13.4062 152.473 13.0426C152.774 12.679 153.169 12.3722 153.658 12.1222C154.152 11.8665 154.774 11.7386 155.524 11.7386C156.507 11.7386 157.405 11.9915 158.217 12.4972C159.03 13.0028 159.675 13.7557 160.152 14.7557C160.635 15.7557 160.876 16.9943 160.876 18.4716C160.876 19.9205 160.641 21.1477 160.169 22.1534C159.703 23.1534 159.064 23.9148 158.251 24.4375C157.445 24.9602 156.536 25.2216 155.524 25.2216C154.797 25.2216 154.186 25.1023 153.692 24.8636C153.203 24.6193 152.805 24.321 152.499 23.9688C152.192 23.6108 151.956 23.2614 151.791 22.9205H151.672V29.9091H148.314ZM151.604 18.4545C151.604 19.267 151.717 19.9773 151.945 20.5852C152.178 21.1932 152.51 21.6676 152.942 22.0085C153.374 22.3437 153.899 22.5114 154.518 22.5114C155.155 22.5114 155.689 22.3381 156.121 21.9915C156.558 21.6449 156.888 21.1676 157.109 20.5597C157.337 19.946 157.45 19.2443 157.45 18.4545C157.45 17.6705 157.339 16.9773 157.118 16.375C156.896 15.7727 156.567 15.3011 156.129 14.9602C155.697 14.6193 155.161 14.4489 154.518 14.4489C153.893 14.4489 153.365 14.6136 152.933 14.9432C152.501 15.2727 152.172 15.7386 151.945 16.3409C151.717 16.9375 151.604 17.642 151.604 18.4545ZM178.753 12.4545C178.679 11.7386 178.366 11.1818 177.815 10.7841C177.264 10.3864 176.531 10.1875 175.616 10.1875C174.986 10.1875 174.449 10.2784 174.006 10.4602C173.562 10.642 173.224 10.892 172.991 11.2102C172.759 11.5284 172.639 11.892 172.634 12.3011C172.628 12.6364 172.702 12.929 172.855 13.179C173.014 13.429 173.23 13.642 173.503 13.8182C173.776 13.9943 174.082 14.1449 174.423 14.2699C174.77 14.3949 175.128 14.5 175.497 14.5852L177.099 14.9773C177.81 15.1364 178.477 15.3523 179.102 15.625C179.727 15.8977 180.276 16.2386 180.747 16.6477C181.224 17.0511 181.599 17.5341 181.872 18.0966C182.145 18.6591 182.281 19.3125 182.281 20.0568C182.281 21.1023 182.014 22.0142 181.48 22.7926C180.952 23.571 180.188 24.1761 179.188 24.608C178.193 25.0398 176.991 25.2557 175.582 25.2557C174.202 25.2557 173 25.0426 171.977 24.6165C170.96 24.1903 170.165 23.5625 169.591 22.733C169.023 21.9034 168.719 20.8864 168.679 19.6818H172.02C172.065 20.2784 172.244 20.7756 172.557 21.1733C172.869 21.5653 173.284 21.8608 173.801 22.0597C174.318 22.2585 174.901 22.358 175.548 22.358C176.207 22.358 176.781 22.2614 177.27 22.0682C177.764 21.8693 178.148 21.5966 178.42 21.25C178.699 20.9034 178.838 20.5 178.838 20.0398C178.838 19.6136 178.713 19.2614 178.463 18.983C178.219 18.6989 177.869 18.4602 177.415 18.267C176.96 18.0682 176.418 17.892 175.787 17.7386L173.844 17.2443C172.389 16.8807 171.241 16.321 170.401 15.5653C169.56 14.804 169.139 13.7898 169.139 12.5227C169.139 11.4773 169.42 10.5653 169.983 9.7869C170.551 9.0028 171.327 8.3949 172.31 7.96307C173.293 7.52557 174.406 7.30682 175.651 7.30682C176.918 7.30682 178.026 7.52557 178.974 7.96307C179.929 8.3949 180.673 9 181.207 9.7784C181.747 10.5511 182.026 11.4432 182.043 12.4545H178.753ZM190.642 25.2557C189.341 25.2557 188.216 24.9744 187.267 24.4119C186.318 23.8437 185.582 23.054 185.06 22.0426C184.543 21.0312 184.284 19.8523 184.284 18.5057C184.284 17.1534 184.543 15.9687 185.06 14.9517C185.582 13.9347 186.318 13.1449 187.267 12.5824C188.216 12.0199 189.341 11.7386 190.642 11.7386C191.943 11.7386 193.068 12.0199 194.017 12.5824C194.972 13.1449 195.707 13.9347 196.224 14.9517C196.741 15.9687 197 17.1534 197 18.5057C197 19.8523 196.741 21.0312 196.224 22.0426C195.707 23.054 194.972 23.8437 194.017 24.4119C193.068 24.9744 191.943 25.2557 190.642 25.2557ZM190.659 22.6136C191.307 22.6136 191.847 22.4318 192.278 22.0682C192.716 21.7045 193.043 21.2131 193.259 20.5938C193.48 19.9688 193.591 19.267 193.591 18.4886C193.591 17.7045 193.48 17.0028 193.259 16.3835C193.043 15.7585 192.716 15.2642 192.278 14.9006C191.847 14.5312 191.307 14.3466 190.659 14.3466C190 14.3466 189.449 14.5312 189.006 14.9006C188.568 15.2642 188.239 15.7585 188.017 16.3835C187.801 17.0028 187.693 17.7045 187.693 18.4886C187.693 19.267 187.801 19.9688 188.017 20.5938C188.239 21.2131 188.568 21.7045 189.006 22.0682C189.449 22.4318 190 22.6136 190.659 22.6136ZM202.836 7.54545V25H199.478V7.54545H202.836ZM214.246 19.4602V11.9091H217.604V25H214.365V22.6477H214.229C213.933 23.3977 213.445 24.0057 212.763 24.4716C212.087 24.9375 211.257 25.1705 210.274 25.1705C209.411 25.1705 208.646 24.9744 207.982 24.5824C207.322 24.1903 206.808 23.6278 206.439 22.8949C206.07 22.1619 205.882 21.2784 205.876 20.2443V11.9091H209.234V19.6818C209.24 20.483 209.459 21.1193 209.891 21.5909C210.322 22.0568 210.893 22.2898 211.604 22.2898C212.053 22.2898 212.479 22.1847 212.882 21.9744C213.286 21.7585 213.615 21.4432 213.871 21.0284C214.126 20.608 214.251 20.0852 214.246 19.4602ZM227.392 11.9091V14.4659H219.688V11.9091H227.392ZM221.511 8.7727H224.869V21.0199C224.869 21.3949 224.926 21.6847 225.04 21.8892C225.159 22.0881 225.315 22.2273 225.509 22.3068C225.707 22.3807 225.932 22.4176 226.182 22.4176C226.364 22.4176 226.537 22.4034 226.702 22.375C226.872 22.3409 227 22.3153 227.085 22.2983L227.631 24.8551C227.46 24.9119 227.216 24.9744 226.898 25.0426C226.58 25.1165 226.193 25.1619 225.739 25.179C224.915 25.2074 224.185 25.0909 223.548 24.8295C222.912 24.5625 222.412 24.1534 222.048 23.6023C221.685 23.0455 221.506 22.3494 221.511 21.5142V8.7727ZM229.853 25V11.9091H233.211V25H229.853ZM231.54 10.1364C231.029 10.1364 230.589 9.9659 230.219 9.625C229.85 9.2784 229.665 8.8636 229.665 8.3807C229.665 7.89773 229.85 7.4858 230.219 7.14489C230.589 6.7983 231.029 6.625 231.54 6.625C232.058 6.625 232.498 6.7983 232.862 7.14489C233.231 7.4858 233.415 7.89773 233.415 8.3807C233.415 8.8636 233.231 9.2784 232.862 9.625C232.498 9.9659 232.058 10.1364 231.54 10.1364ZM242.064 25.2557C240.763 25.2557 239.638 24.9744 238.689 24.4119C237.74 23.8437 237.004 23.054 236.482 22.0426C235.964 21.0312 235.706 19.8523 235.706 18.5057C235.706 17.1534 235.964 15.9687 236.482 14.9517C237.004 13.9347 237.74 13.1449 238.689 12.5824C239.638 12.0199 240.763 11.7386 242.064 11.7386C243.365 11.7386 244.49 12.0199 245.439 12.5824C246.393 13.1449 247.129 13.9347 247.646 14.9517C248.163 15.9687 248.422 17.1534 248.422 18.5057C248.422 19.8523 248.163 21.0312 247.646 22.0426C247.129 23.054 246.393 23.8437 245.439 24.4119C244.49 24.9744 243.365 25.2557 242.064 25.2557ZM242.081 22.6136C242.729 22.6136 243.268 22.4318 243.7 22.0682C244.138 21.7045 244.464 21.2131 244.68 20.5938C244.902 19.9688 245.013 19.267 245.013 18.4886C245.013 17.7045 244.902 17.0028 244.68 16.3835C244.464 15.7585 244.138 15.2642 243.7 14.9006C243.268 14.5312 242.729 14.3466 242.081 14.3466C241.422 14.3466 240.871 14.5312 240.428 14.9006C239.99 15.2642 239.661 15.7585 239.439 16.3835C239.223 17.0028 239.115 17.7045 239.115 18.4886C239.115 19.267 239.223 19.9688 239.439 20.5938C239.661 21.2131 239.99 21.7045 240.428 22.0682C240.871 22.4318 241.422 22.6136 242.081 22.6136ZM254.258 17.3807V25H250.9V11.9091H254.104V14.1761H254.258C254.553 13.4261 255.036 12.8324 255.707 12.3949C256.383 11.9574 257.207 11.7386 258.178 11.7386C259.087 11.7386 259.877 11.9347 260.548 12.3267C261.224 12.7188 261.749 13.2812 262.124 14.0142C262.499 14.7472 262.684 15.6307 262.678 16.6648V25H259.32V17.2273C259.326 16.3864 259.11 15.7301 258.673 15.2585C258.241 14.7869 257.644 14.5511 256.883 14.5511C256.371 14.5511 255.917 14.6619 255.519 14.8835C255.127 15.1051 254.82 15.429 254.599 15.8551C254.377 16.2756 254.263 16.7841 254.258 17.3807ZM276.308 15.5057L273.24 15.7614C273.172 15.4773 273.041 15.2159 272.848 14.9773C272.661 14.733 272.408 14.5398 272.089 14.3977C271.771 14.25 271.388 14.1761 270.939 14.1761C270.337 14.1761 269.831 14.304 269.422 14.5597C269.013 14.8153 268.808 15.1534 268.808 15.5739C268.808 15.9205 268.942 16.2074 269.209 16.4347C269.476 16.6619 269.928 16.8466 270.564 16.9886L272.865 17.4659C274.121 17.7273 275.055 18.1477 275.669 18.7273C276.288 19.3068 276.598 20.0682 276.598 21.0114C276.598 21.8523 276.354 22.5909 275.865 23.2273C275.376 23.8636 274.703 24.3608 273.845 24.7188C272.987 25.0767 272.001 25.2557 270.888 25.2557C269.223 25.2557 267.888 24.9062 266.882 24.2074C265.882 23.5085 265.291 22.5455 265.109 21.3182L268.399 21.0795C268.524 21.6364 268.8 22.0597 269.226 22.3494C269.658 22.6392 270.212 22.7841 270.888 22.7841C271.575 22.7841 272.126 22.6477 272.541 22.375C272.962 22.0966 273.172 21.75 273.172 21.3352C273.172 20.983 273.03 20.6932 272.746 20.4659C272.467 20.233 272.036 20.0568 271.45 19.9375L269.2 19.4773C267.933 19.2159 266.993 18.7727 266.379 18.1477C265.771 17.5227 265.467 16.7273 265.467 15.7614C265.467 14.9375 265.692 14.2244 266.141 13.6222C266.595 13.0199 267.229 12.5568 268.041 12.233C268.859 11.9034 269.808 11.7386 270.888 11.7386C272.484 11.7386 273.74 12.0767 274.655 12.7528C275.575 13.429 276.126 14.3466 276.308 15.5057Z" fill="white"/>
</svg>
