<svg width="378" height="216" viewBox="0 0 378 216" fill="none" xmlns="http://www.w3.org/2000/svg">
<g filter="url(#filter0_bd_41_89)">
<rect x="22" y="24" width="140" height="56" rx="8" fill="white" fill-opacity="0.3" shape-rendering="crispEdges"/>
<rect x="22.5" y="24.5" width="139" height="55" rx="7.5" stroke="#E5E5E5" stroke-opacity="0.5" shape-rendering="crispEdges"/>
<rect x="10" y="12" width="24" height="24" rx="12" fill="#57C82B"/>
<path fill-rule="evenodd" clip-rule="evenodd" d="M18.6673 29.7747L16.4485 30.3684C15.953 30.501 15.4996 30.0476 15.6322 29.552L16.2259 27.3333C15.6586 26.3527 15.334 25.2142 15.334 23.9999C15.334 20.318 18.3188 17.3333 22.0007 17.3333C25.6826 17.3333 28.6673 20.318 28.6673 23.9999C28.6673 27.6818 25.6826 30.6666 22.0007 30.6666C20.7864 30.6666 19.6479 30.3419 18.6673 29.7747ZM20.1967 20.8333C19.4778 20.8333 18.7594 21.4451 18.9334 22.2907C19.0577 22.8948 19.2932 23.4783 19.6097 24.017C20.1778 24.9839 21.0167 25.8228 21.9836 26.3909C22.5222 26.7074 23.1058 26.9429 23.7099 27.0672C24.5554 27.2412 25.1673 26.5228 25.1673 25.8038C25.1673 25.0512 24.5572 24.4411 23.8046 24.4411H23.669C23.2717 24.4411 22.8906 24.5989 22.6096 24.8799L22.1667 25.3229C21.5883 24.9258 21.0748 24.4123 20.6777 23.8339L21.1206 23.391C21.4016 23.11 21.5595 22.7289 21.5595 22.3315V22.196C21.5595 21.4434 20.9494 20.8333 20.1967 20.8333Z" fill="white"/>
<path d="M34.9588 47V38.2727H38.0696C38.7457 38.2727 39.3068 38.3892 39.7528 38.6222C40.2017 38.8551 40.5369 39.1776 40.7585 39.5895C40.9801 39.9986 41.0909 40.4716 41.0909 41.0085C41.0909 41.5426 40.9787 42.0128 40.7543 42.419C40.5327 42.8224 40.1974 43.1364 39.7486 43.3608C39.3026 43.5852 38.7415 43.6974 38.0653 43.6974H35.7088V42.5639H37.946C38.3722 42.5639 38.7188 42.5028 38.9858 42.3807C39.2557 42.2585 39.4531 42.081 39.5781 41.848C39.7031 41.6151 39.7656 41.3352 39.7656 41.0085C39.7656 40.679 39.7017 40.3935 39.5739 40.152C39.4489 39.9105 39.2514 39.7259 38.9815 39.598C38.7145 39.4673 38.3636 39.402 37.929 39.402H36.2756V47H34.9588ZM39.267 43.0625L41.4233 47H39.9233L37.8097 43.0625H39.267ZM45.3299 47.1321C44.685 47.1321 44.1296 46.9943 43.6637 46.7188C43.2006 46.4403 42.8427 46.0497 42.5898 45.5469C42.3398 45.0412 42.2148 44.4489 42.2148 43.7699C42.2148 43.0994 42.3398 42.5085 42.5898 41.9972C42.8427 41.4858 43.195 41.0866 43.6467 40.7997C44.1012 40.5128 44.6325 40.3693 45.2404 40.3693C45.6097 40.3693 45.9677 40.4304 46.3143 40.5526C46.6609 40.6747 46.9719 40.8665 47.2475 41.1278C47.5231 41.3892 47.7404 41.7287 47.8995 42.1463C48.0586 42.5611 48.1381 43.0653 48.1381 43.6591V44.1108H42.935V43.1562H46.8896C46.8896 42.821 46.8214 42.5241 46.685 42.2656C46.5487 42.0043 46.3569 41.7983 46.1097 41.6477C45.8654 41.4972 45.5785 41.4219 45.2489 41.4219C44.891 41.4219 44.5785 41.5099 44.3114 41.6861C44.0472 41.8594 43.8427 42.0866 43.6978 42.3679C43.5558 42.6463 43.4847 42.9489 43.4847 43.2756V44.0213C43.4847 44.4588 43.5614 44.831 43.7148 45.1378C43.8711 45.4446 44.0884 45.679 44.3668 45.8409C44.6452 46 44.9705 46.0795 45.3427 46.0795C45.5842 46.0795 45.8043 46.0455 46.0032 45.9773C46.2021 45.9062 46.3739 45.8011 46.5188 45.6619C46.6637 45.5227 46.7745 45.3509 46.8512 45.1463L48.0572 45.3636C47.9606 45.7187 47.7873 46.0298 47.5373 46.2969C47.2901 46.5611 46.979 46.767 46.604 46.9148C46.2319 47.0597 45.8072 47.1321 45.3299 47.1321ZM54.4567 42.0526L53.3018 42.2571C53.2536 42.1094 53.1768 41.9687 53.0717 41.8352C52.9695 41.7017 52.8303 41.5923 52.6541 41.5071C52.478 41.4219 52.2578 41.3793 51.9936 41.3793C51.6328 41.3793 51.3317 41.4602 51.0902 41.6222C50.8487 41.7812 50.728 41.9872 50.728 42.2401C50.728 42.4588 50.8089 42.6349 50.9709 42.7685C51.1328 42.902 51.3942 43.0114 51.755 43.0966L52.7947 43.3352C53.397 43.4744 53.8459 43.6889 54.1413 43.9787C54.4368 44.2685 54.5845 44.6449 54.5845 45.108C54.5845 45.5 54.4709 45.8494 54.2436 46.1562C54.0192 46.4602 53.7053 46.6989 53.3018 46.8722C52.9013 47.0455 52.4368 47.1321 51.9084 47.1321C51.1754 47.1321 50.5774 46.9759 50.1143 46.6634C49.6513 46.348 49.3672 45.9006 49.2621 45.321L50.4936 45.1335C50.5703 45.4545 50.728 45.6974 50.9666 45.8622C51.2053 46.0241 51.5163 46.1051 51.8999 46.1051C52.3175 46.1051 52.6513 46.0185 52.9013 45.8452C53.1513 45.669 53.2763 45.4545 53.2763 45.2017C53.2763 44.9972 53.1996 44.8253 53.0462 44.6861C52.8956 44.5469 52.6641 44.4418 52.3516 44.3707L51.2436 44.1278C50.6328 43.9886 50.1811 43.767 49.8885 43.4631C49.5987 43.1591 49.4538 42.7741 49.4538 42.3082C49.4538 41.9219 49.5618 41.5838 49.7777 41.294C49.9936 41.0043 50.2919 40.7784 50.6726 40.6165C51.0533 40.4517 51.4893 40.3693 51.9808 40.3693C52.6882 40.3693 53.245 40.5227 53.6513 40.8295C54.0575 41.1335 54.326 41.5412 54.4567 42.0526ZM58.8065 47.1321C58.1616 47.1321 57.6062 46.9943 57.1403 46.7188C56.6772 46.4403 56.3192 46.0497 56.0664 45.5469C55.8164 45.0412 55.6914 44.4489 55.6914 43.7699C55.6914 43.0994 55.8164 42.5085 56.0664 41.9972C56.3192 41.4858 56.6715 41.0866 57.1232 40.7997C57.5778 40.5128 58.109 40.3693 58.717 40.3693C59.0863 40.3693 59.4442 40.4304 59.7908 40.5526C60.1374 40.6747 60.4485 40.8665 60.7241 41.1278C60.9996 41.3892 61.217 41.7287 61.3761 42.1463C61.5352 42.5611 61.6147 43.0653 61.6147 43.6591V44.1108H56.4116V43.1562H60.3661C60.3661 42.821 60.2979 42.5241 60.1616 42.2656C60.0252 42.0043 59.8335 41.7983 59.5863 41.6477C59.342 41.4972 59.055 41.4219 58.7255 41.4219C58.3675 41.4219 58.055 41.5099 57.788 41.6861C57.5238 41.8594 57.3192 42.0866 57.1744 42.3679C57.0323 42.6463 56.9613 42.9489 56.9613 43.2756V44.0213C56.9613 44.4588 57.038 44.831 57.1914 45.1378C57.3477 45.4446 57.565 45.679 57.8434 45.8409C58.1218 46 58.4471 46.0795 58.8192 46.0795C59.0607 46.0795 59.2809 46.0455 59.4798 45.9773C59.6786 45.9062 59.8505 45.8011 59.9954 45.6619C60.1403 45.5227 60.2511 45.3509 60.3278 45.1463L61.5337 45.3636C61.4371 45.7187 61.2638 46.0298 61.0138 46.2969C60.7667 46.5611 60.4556 46.767 60.0806 46.9148C59.7085 47.0597 59.2837 47.1321 58.8065 47.1321ZM63.0284 47V40.4545H64.2599V41.4943H64.3281C64.4474 41.142 64.6577 40.8651 64.9588 40.6634C65.2628 40.4588 65.6065 40.3565 65.9901 40.3565C66.0696 40.3565 66.1634 40.3594 66.2713 40.3651C66.3821 40.3707 66.4688 40.3778 66.5312 40.3864V41.6051C66.4801 41.5909 66.3892 41.5753 66.2585 41.5582C66.1278 41.5384 65.9972 41.5284 65.8665 41.5284C65.5653 41.5284 65.2969 41.5923 65.0611 41.7202C64.8281 41.8452 64.6435 42.0199 64.5071 42.2443C64.3707 42.4659 64.3026 42.7187 64.3026 43.0028V47H63.0284ZM73.4325 40.4545L71.0589 47H69.6953L67.3175 40.4545H68.6854L70.343 45.4915H70.4112L72.0646 40.4545H73.4325ZM76.3473 47.1449C75.9325 47.1449 75.5575 47.0682 75.2223 46.9148C74.8871 46.7585 74.6214 46.5327 74.4254 46.2372C74.2322 45.9418 74.1357 45.5795 74.1357 45.1506C74.1357 44.7812 74.2067 44.4773 74.3487 44.2386C74.4908 44 74.6825 43.8111 74.924 43.6719C75.1655 43.5327 75.4354 43.4276 75.7337 43.3565C76.032 43.2855 76.3359 43.2315 76.6456 43.1946C77.0376 43.1491 77.3558 43.1122 77.6001 43.0838C77.8445 43.0526 78.022 43.0028 78.1328 42.9347C78.2436 42.8665 78.299 42.7557 78.299 42.6023V42.5724C78.299 42.2003 78.1939 41.9119 77.9837 41.7074C77.7763 41.5028 77.4666 41.4006 77.0547 41.4006C76.6257 41.4006 76.2876 41.4957 76.0405 41.6861C75.7962 41.8736 75.6271 42.0824 75.5334 42.3125L74.3359 42.0398C74.478 41.642 74.6854 41.321 74.9581 41.0767C75.2337 40.8295 75.5504 40.6506 75.9084 40.5398C76.2663 40.4261 76.6428 40.3693 77.0376 40.3693C77.299 40.3693 77.576 40.4006 77.8686 40.4631C78.1641 40.5227 78.4396 40.6335 78.6953 40.7955C78.9538 40.9574 79.1655 41.1889 79.3303 41.4901C79.495 41.7884 79.5774 42.1761 79.5774 42.6534V47H78.3331V46.1051H78.282C78.1996 46.2699 78.076 46.4318 77.9112 46.5909C77.7464 46.75 77.5348 46.8821 77.2763 46.9872C77.0178 47.0923 76.7081 47.1449 76.3473 47.1449ZM76.6243 46.1222C76.9766 46.1222 77.2777 46.0526 77.5277 45.9134C77.7805 45.7741 77.9723 45.5923 78.103 45.3679C78.2365 45.1406 78.3033 44.8977 78.3033 44.6392V43.7955C78.2578 43.8409 78.1697 43.8835 78.0391 43.9233C77.9112 43.9602 77.7649 43.9929 77.6001 44.0213C77.4354 44.0469 77.2749 44.071 77.1186 44.0938C76.9624 44.1136 76.8317 44.1307 76.7266 44.1449C76.4794 44.1761 76.2536 44.2287 76.049 44.3026C75.8473 44.3764 75.6854 44.483 75.5632 44.6222C75.4439 44.7585 75.3842 44.9403 75.3842 45.1676C75.3842 45.483 75.5007 45.7216 75.7337 45.8835C75.9666 46.0426 76.2635 46.1222 76.6243 46.1222ZM84.3299 40.4545V41.4773H80.7546V40.4545H84.3299ZM81.7134 38.8864H82.9876V45.0781C82.9876 45.3253 83.0245 45.5114 83.0984 45.6364C83.1722 45.7585 83.2674 45.8423 83.3839 45.8878C83.5032 45.9304 83.6325 45.9517 83.7717 45.9517C83.8739 45.9517 83.9634 45.9446 84.0401 45.9304C84.1168 45.9162 84.1765 45.9048 84.2191 45.8963L84.4492 46.9489C84.3754 46.9773 84.2702 47.0057 84.1339 47.0341C83.9975 47.0653 83.8271 47.0824 83.6225 47.0852C83.2873 47.0909 82.9748 47.0312 82.685 46.9062C82.3952 46.7812 82.1609 46.5881 81.9819 46.3267C81.8029 46.0653 81.7134 45.7372 81.7134 45.3423V38.8864ZM85.7393 47V40.4545H87.0135V47H85.7393ZM86.3828 39.4446C86.1612 39.4446 85.9709 39.3707 85.8118 39.223C85.6555 39.0724 85.5774 38.8935 85.5774 38.6861C85.5774 38.4759 85.6555 38.2969 85.8118 38.1491C85.9709 37.9986 86.1612 37.9233 86.3828 37.9233C86.6044 37.9233 86.7933 37.9986 86.9496 38.1491C87.1087 38.2969 87.1882 38.4759 87.1882 38.6861C87.1882 38.8935 87.1087 39.0724 86.9496 39.223C86.7933 39.3707 86.6044 39.4446 86.3828 39.4446ZM91.4847 47.1321C90.8711 47.1321 90.3356 46.9915 89.8782 46.7102C89.4208 46.429 89.0657 46.0355 88.8129 45.5298C88.56 45.0241 88.4336 44.4332 88.4336 43.7571C88.4336 43.0781 88.56 42.4844 88.8129 41.9759C89.0657 41.4673 89.4208 41.0724 89.8782 40.7912C90.3356 40.5099 90.8711 40.3693 91.4847 40.3693C92.0984 40.3693 92.6339 40.5099 93.0913 40.7912C93.5487 41.0724 93.9038 41.4673 94.1566 41.9759C94.4094 42.4844 94.5359 43.0781 94.5359 43.7571C94.5359 44.4332 94.4094 45.0241 94.1566 45.5298C93.9038 46.0355 93.5487 46.429 93.0913 46.7102C92.6339 46.9915 92.0984 47.1321 91.4847 47.1321ZM91.489 46.0625C91.8867 46.0625 92.2163 45.9574 92.4776 45.7472C92.739 45.5369 92.9322 45.2571 93.0572 44.9077C93.185 44.5582 93.2489 44.1733 93.2489 43.7528C93.2489 43.3352 93.185 42.9517 93.0572 42.6023C92.9322 42.25 92.739 41.9673 92.4776 41.7543C92.2163 41.5412 91.8867 41.4347 91.489 41.4347C91.0884 41.4347 90.756 41.5412 90.4918 41.7543C90.2305 41.9673 90.0359 42.25 89.908 42.6023C89.783 42.9517 89.7205 43.3352 89.7205 43.7528C89.7205 44.1733 89.783 44.5582 89.908 44.9077C90.0359 45.2571 90.2305 45.5369 90.4918 45.7472C90.756 45.9574 91.0884 46.0625 91.489 46.0625ZM97.2322 43.1136V47H95.9581V40.4545H97.1811V41.5199H97.2621C97.4126 41.1733 97.6484 40.8949 97.9695 40.6847C98.2933 40.4744 98.701 40.3693 99.1925 40.3693C99.6385 40.3693 100.029 40.4631 100.364 40.6506C100.7 40.8352 100.96 41.1108 101.144 41.4773C101.329 41.8437 101.421 42.2969 101.421 42.8366V47H100.147V42.9901C100.147 42.5156 100.023 42.1449 99.7763 41.8778C99.5291 41.608 99.1896 41.473 98.7578 41.473C98.4624 41.473 98.1996 41.5369 97.9695 41.6648C97.7422 41.7926 97.5618 41.9801 97.4283 42.2273C97.2976 42.4716 97.2322 42.767 97.2322 43.1136ZM108.211 47.1449C107.796 47.1449 107.421 47.0682 107.086 46.9148C106.75 46.7585 106.485 46.5327 106.289 46.2372C106.096 45.9418 105.999 45.5795 105.999 45.1506C105.999 44.7812 106.07 44.4773 106.212 44.2386C106.354 44 106.546 43.8111 106.787 43.6719C107.029 43.5327 107.299 43.4276 107.597 43.3565C107.895 43.2855 108.199 43.2315 108.509 43.1946C108.901 43.1491 109.219 43.1122 109.463 43.0838C109.708 43.0526 109.885 43.0028 109.996 42.9347C110.107 42.8665 110.162 42.7557 110.162 42.6023V42.5724C110.162 42.2003 110.057 41.9119 109.847 41.7074C109.64 41.5028 109.33 41.4006 108.918 41.4006C108.489 41.4006 108.151 41.4957 107.904 41.6861C107.659 41.8736 107.49 42.0824 107.397 42.3125L106.199 42.0398C106.341 41.642 106.549 41.321 106.821 41.0767C107.097 40.8295 107.414 40.6506 107.772 40.5398C108.13 40.4261 108.506 40.3693 108.901 40.3693C109.162 40.3693 109.439 40.4006 109.732 40.4631C110.027 40.5227 110.303 40.6335 110.559 40.7955C110.817 40.9574 111.029 41.1889 111.194 41.4901C111.358 41.7884 111.441 42.1761 111.441 42.6534V47H110.196V46.1051H110.145C110.063 46.2699 109.939 46.4318 109.775 46.5909C109.61 46.75 109.398 46.8821 109.14 46.9872C108.881 47.0923 108.571 47.1449 108.211 47.1449ZM108.488 46.1222C108.84 46.1222 109.141 46.0526 109.391 45.9134C109.644 45.7741 109.836 45.5923 109.966 45.3679C110.1 45.1406 110.167 44.8977 110.167 44.6392V43.7955C110.121 43.8409 110.033 43.8835 109.902 43.9233C109.775 43.9602 109.628 43.9929 109.463 44.0213C109.299 44.0469 109.138 44.071 108.982 44.0938C108.826 44.1136 108.695 44.1307 108.59 44.1449C108.343 44.1761 108.117 44.2287 107.912 44.3026C107.711 44.3764 107.549 44.483 107.426 44.6222C107.307 44.7585 107.248 44.9403 107.248 45.1676C107.248 45.483 107.364 45.7216 107.597 45.8835C107.83 46.0426 108.127 46.1222 108.488 46.1222ZM116.193 40.4545V41.4773H112.618V40.4545H116.193ZM113.577 38.8864H114.851V45.0781C114.851 45.3253 114.888 45.5114 114.962 45.6364C115.036 45.7585 115.131 45.8423 115.247 45.8878C115.366 45.9304 115.496 45.9517 115.635 45.9517C115.737 45.9517 115.827 45.9446 115.903 45.9304C115.98 45.9162 116.04 45.9048 116.082 45.8963L116.312 46.9489C116.239 46.9773 116.134 47.0057 115.997 47.0341C115.861 47.0653 115.69 47.0824 115.486 47.0852C115.151 47.0909 114.838 47.0312 114.548 46.9062C114.259 46.7812 114.024 46.5881 113.845 46.3267C113.666 46.0653 113.577 45.7372 113.577 45.3423V38.8864ZM38.1506 56.2727V65H36.8295V57.5938H36.7784L34.6903 58.9574V57.696L36.8679 56.2727H38.1506ZM43.4602 65.1193C42.8494 65.1193 42.3097 65.0142 41.8409 64.804C41.375 64.5937 41.0099 64.304 40.7457 63.9347C40.4815 63.5653 40.3509 63.1449 40.3537 62.6733C40.3509 62.304 40.4261 61.9645 40.5795 61.6548C40.7358 61.3423 40.9474 61.0824 41.2145 60.875C41.4815 60.6648 41.7798 60.5312 42.1094 60.4744V60.4233C41.6747 60.3182 41.3267 60.0852 41.0653 59.7244C40.804 59.3636 40.6747 58.9489 40.6776 58.4801C40.6747 58.0341 40.7926 57.6364 41.0312 57.2869C41.2727 56.9347 41.6037 56.6577 42.0241 56.456C42.4446 56.2543 42.9233 56.1534 43.4602 56.1534C43.9915 56.1534 44.4659 56.2557 44.8835 56.4602C45.304 56.6619 45.6349 56.9389 45.8764 57.2912C46.1179 57.6406 46.2401 58.0369 46.2429 58.4801C46.2401 58.9489 46.1065 59.3636 45.8423 59.7244C45.5781 60.0852 45.2344 60.3182 44.8111 60.4233V60.4744C45.1378 60.5312 45.4318 60.6648 45.6932 60.875C45.9574 61.0824 46.1676 61.3423 46.3239 61.6548C46.483 61.9645 46.5639 62.304 46.5668 62.6733C46.5639 63.1449 46.4304 63.5653 46.1662 63.9347C45.902 64.304 45.5355 64.5937 45.0668 64.804C44.6009 65.0142 44.0653 65.1193 43.4602 65.1193ZM43.4602 64.0412C43.821 64.0412 44.1335 63.9815 44.3977 63.8622C44.6619 63.7401 44.8665 63.571 45.0114 63.3551C45.1563 63.1364 45.2301 62.8807 45.233 62.5881C45.2301 62.2841 45.1506 62.0156 44.9943 61.7827C44.8409 61.5497 44.6321 61.3665 44.3679 61.233C44.1037 61.0994 43.8011 61.0327 43.4602 61.0327C43.1165 61.0327 42.8111 61.0994 42.544 61.233C42.277 61.3665 42.0668 61.5497 41.9134 61.7827C41.7599 62.0156 41.6847 62.2841 41.6875 62.5881C41.6847 62.8807 41.7543 63.1364 41.8963 63.3551C42.0412 63.571 42.2472 63.7401 42.5142 63.8622C42.7813 63.9815 43.0966 64.0412 43.4602 64.0412ZM43.4602 59.9801C43.75 59.9801 44.0071 59.9219 44.2315 59.8054C44.456 59.6889 44.6321 59.527 44.7599 59.3196C44.8906 59.1122 44.9574 58.8693 44.9602 58.5909C44.9574 58.3182 44.892 58.0795 44.7642 57.875C44.6392 57.6705 44.4645 57.5128 44.2401 57.402C44.0156 57.2884 43.7557 57.2315 43.4602 57.2315C43.1591 57.2315 42.8949 57.2884 42.6676 57.402C42.4432 57.5128 42.2685 57.6705 42.1435 57.875C42.0185 58.0795 41.9574 58.3182 41.9602 58.5909C41.9574 58.8693 42.0199 59.1122 42.1477 59.3196C42.2756 59.527 42.4517 59.6889 42.6761 59.8054C42.9034 59.9219 43.1648 59.9801 43.4602 59.9801ZM48.9499 63.9176C48.717 63.9176 48.5167 63.8352 48.3491 63.6705C48.1815 63.5028 48.0977 63.3011 48.0977 63.0653C48.0977 62.8324 48.1815 62.6335 48.3491 62.4688C48.5167 62.3011 48.717 62.2173 48.9499 62.2173C49.1829 62.2173 49.3832 62.3011 49.5508 62.4688C49.7184 62.6335 49.8022 62.8324 49.8022 63.0653C49.8022 63.2216 49.7624 63.3651 49.6829 63.4957C49.6062 63.6236 49.5039 63.7259 49.3761 63.8026C49.2482 63.8793 49.1062 63.9176 48.9499 63.9176ZM48.9499 59.5455C48.717 59.5455 48.5167 59.4631 48.3491 59.2983C48.1815 59.1307 48.0977 58.929 48.0977 58.6932C48.0977 58.4602 48.1815 58.2614 48.3491 58.0966C48.5167 57.929 48.717 57.8452 48.9499 57.8452C49.1829 57.8452 49.3832 57.929 49.5508 58.0966C49.7184 58.2614 49.8022 58.4602 49.8022 58.6932C49.8022 58.8494 49.7624 58.9929 49.6829 59.1236C49.6062 59.2514 49.5039 59.3537 49.3761 59.4304C49.2482 59.5071 49.1062 59.5455 48.9499 59.5455ZM54.5302 65.1449C53.8569 65.142 53.2816 64.9645 52.8043 64.6122C52.3271 64.2599 51.962 63.7472 51.7092 63.0739C51.4563 62.4006 51.3299 61.5895 51.3299 60.6406C51.3299 59.6946 51.4563 58.8864 51.7092 58.2159C51.9648 57.5455 52.3313 57.0341 52.8086 56.6818C53.2887 56.3295 53.8626 56.1534 54.5302 56.1534C55.1978 56.1534 55.7702 56.331 56.2475 56.6861C56.7248 57.0384 57.0898 57.5497 57.3427 58.2202C57.5984 58.8878 57.7262 59.6946 57.7262 60.6406C57.7262 61.5923 57.5998 62.4048 57.3469 63.0781C57.0941 63.7486 56.729 64.2614 56.2518 64.6165C55.7745 64.9688 55.2006 65.1449 54.5302 65.1449ZM54.5302 64.0071C55.1211 64.0071 55.5827 63.7188 55.9151 63.142C56.2504 62.5653 56.418 61.7315 56.418 60.6406C56.418 59.9162 56.3413 59.304 56.1879 58.804C56.0373 58.3011 55.82 57.9205 55.5359 57.6619C55.2546 57.4006 54.9194 57.2699 54.5302 57.2699C53.9421 57.2699 53.4805 57.5597 53.1452 58.1392C52.81 58.7187 52.641 59.5526 52.6381 60.6406C52.6381 61.3679 52.7134 61.983 52.864 62.4858C53.0174 62.9858 53.2347 63.3651 53.516 63.6236C53.7972 63.8793 54.1353 64.0071 54.5302 64.0071ZM62.2763 65.1449C61.603 65.142 61.0277 64.9645 60.5504 64.6122C60.0732 64.2599 59.7081 63.7472 59.4553 63.0739C59.2024 62.4006 59.076 61.5895 59.076 60.6406C59.076 59.6946 59.2024 58.8864 59.4553 58.2159C59.7109 57.5455 60.0774 57.0341 60.5547 56.6818C61.0348 56.3295 61.6087 56.1534 62.2763 56.1534C62.9439 56.1534 63.5163 56.331 63.9936 56.6861C64.4709 57.0384 64.8359 57.5497 65.0888 58.2202C65.3445 58.8878 65.4723 59.6946 65.4723 60.6406C65.4723 61.5923 65.3459 62.4048 65.093 63.0781C64.8402 63.7486 64.4751 64.2614 63.9979 64.6165C63.5206 64.9688 62.9467 65.1449 62.2763 65.1449ZM62.2763 64.0071C62.8672 64.0071 63.3288 63.7188 63.6612 63.142C63.9964 62.5653 64.1641 61.7315 64.1641 60.6406C64.1641 59.9162 64.0874 59.304 63.9339 58.804C63.7834 58.3011 63.5661 57.9205 63.282 57.6619C63.0007 57.4006 62.6655 57.2699 62.2763 57.2699C61.6882 57.2699 61.2266 57.5597 60.8913 58.1392C60.5561 58.7187 60.3871 59.5526 60.3842 60.6406C60.3842 61.3679 60.4595 61.983 60.6101 62.4858C60.7635 62.9858 60.9808 63.3651 61.2621 63.6236C61.5433 63.8793 61.8814 64.0071 62.2763 64.0071ZM67.5241 65.081C67.2912 65.081 67.0909 64.9986 66.9233 64.8338C66.7557 64.6662 66.6719 64.4645 66.6719 64.2287C66.6719 63.9957 66.7557 63.7969 66.9233 63.6321C67.0909 63.4645 67.2912 63.3807 67.5241 63.3807C67.7571 63.3807 67.9574 63.4645 68.125 63.6321C68.2926 63.7969 68.3764 63.9957 68.3764 64.2287C68.3764 64.3849 68.3366 64.5284 68.2571 64.6591C68.1804 64.7869 68.0781 64.8892 67.9503 64.9659C67.8224 65.0426 67.6804 65.081 67.5241 65.081Z" fill="white"/>
</g>
<g filter="url(#filter1_bd_41_89)">
<rect x="46" y="96" width="169" height="38" rx="8" fill="white" fill-opacity="0.3" shape-rendering="crispEdges"/>
<rect x="46.5" y="96.5" width="168" height="37" rx="7.5" stroke="#E5E5E5" stroke-opacity="0.5" shape-rendering="crispEdges"/>
<rect x="203" y="86" width="24" height="24" rx="12" fill="#57C82B"/>
<path fill-rule="evenodd" clip-rule="evenodd" d="M218.262 95.4469C218.262 97.0578 216.957 98.3636 215.346 98.3636C213.735 98.3636 212.429 97.0578 212.429 95.4469C212.429 93.8361 213.735 92.5303 215.346 92.5303C216.957 92.5303 218.262 93.8361 218.262 95.4469Z" fill="white"/>
<path fill-rule="evenodd" clip-rule="evenodd" d="M220.346 103.197C220.346 103.749 219.898 104.197 219.346 104.197L211.346 104.197C210.793 104.197 210.346 103.749 210.346 103.197C210.346 100.988 212.137 99.1969 214.346 99.1969L216.346 99.1969C218.555 99.1969 220.346 100.988 220.346 103.197Z" fill="white"/>
<path d="M58.2855 110.273H59.7812L62.0611 114.24H62.1548L64.4347 110.273H65.9304L62.7642 115.574V119H61.4517V115.574L58.2855 110.273ZM68.7504 119.132C68.1367 119.132 67.6012 118.991 67.1438 118.71C66.6864 118.429 66.3313 118.036 66.0785 117.53C65.8256 117.024 65.6992 116.433 65.6992 115.757C65.6992 115.078 65.8256 114.484 66.0785 113.976C66.3313 113.467 66.6864 113.072 67.1438 112.791C67.6012 112.51 68.1367 112.369 68.7504 112.369C69.364 112.369 69.8995 112.51 70.3569 112.791C70.8143 113.072 71.1694 113.467 71.4222 113.976C71.6751 114.484 71.8015 115.078 71.8015 115.757C71.8015 116.433 71.6751 117.024 71.4222 117.53C71.1694 118.036 70.8143 118.429 70.3569 118.71C69.8995 118.991 69.364 119.132 68.7504 119.132ZM68.7546 118.062C69.1523 118.062 69.4819 117.957 69.7433 117.747C70.0046 117.537 70.1978 117.257 70.3228 116.908C70.4506 116.558 70.5146 116.173 70.5146 115.753C70.5146 115.335 70.4506 114.952 70.3228 114.602C70.1978 114.25 70.0046 113.967 69.7433 113.754C69.4819 113.541 69.1523 113.435 68.7546 113.435C68.354 113.435 68.0217 113.541 67.7575 113.754C67.4961 113.967 67.3015 114.25 67.1737 114.602C67.0487 114.952 66.9862 115.335 66.9862 115.753C66.9862 116.173 67.0487 116.558 67.1737 116.908C67.3015 117.257 67.4961 117.537 67.7575 117.747C68.0217 117.957 68.354 118.062 68.7546 118.062ZM77.37 116.286V112.455H78.6484V119H77.3956V117.866H77.3274C77.1768 118.216 76.9354 118.507 76.603 118.74C76.2734 118.97 75.8629 119.085 75.3714 119.085C74.951 119.085 74.5788 118.993 74.255 118.808C73.9339 118.621 73.6811 118.344 73.4964 117.977C73.3146 117.611 73.2237 117.158 73.2237 116.618V112.455H74.4979V116.464C74.4979 116.911 74.6214 117.266 74.8686 117.53C75.1158 117.794 75.4368 117.926 75.8317 117.926C76.0703 117.926 76.3075 117.866 76.5433 117.747C76.782 117.628 76.9794 117.447 77.1357 117.206C77.2947 116.964 77.3729 116.658 77.37 116.286ZM80.3604 119V112.455H81.592V113.494H81.6602C81.7795 113.142 81.9897 112.865 82.2908 112.663C82.5948 112.459 82.9386 112.357 83.3221 112.357C83.4016 112.357 83.4954 112.359 83.6033 112.365C83.7141 112.371 83.8008 112.378 83.8633 112.386V113.605C83.8121 113.591 83.7212 113.575 83.5906 113.558C83.4599 113.538 83.3292 113.528 83.1985 113.528C82.8974 113.528 82.6289 113.592 82.3931 113.72C82.1602 113.845 81.9755 114.02 81.8391 114.244C81.7028 114.466 81.6346 114.719 81.6346 115.003V119H80.3604ZM92.5607 121.455V117.982H92.484C92.4073 118.121 92.2965 118.28 92.1516 118.459C92.0096 118.638 91.8136 118.794 91.5636 118.928C91.3136 119.061 90.9897 119.128 90.592 119.128C90.0636 119.128 89.592 118.993 89.1772 118.723C88.7653 118.45 88.4414 118.062 88.2056 117.56C87.9727 117.054 87.8562 116.447 87.8562 115.74C87.8562 115.033 87.9741 114.428 88.2099 113.925C88.4485 113.422 88.7752 113.037 89.19 112.77C89.6048 112.503 90.0749 112.369 90.6005 112.369C91.0067 112.369 91.3335 112.438 91.5806 112.574C91.8306 112.707 92.0238 112.864 92.1602 113.043C92.2994 113.222 92.4073 113.379 92.484 113.516H92.5906V112.455H93.8349V121.455H92.5607ZM90.8732 118.041C91.2397 118.041 91.5494 117.945 91.8022 117.751C92.0579 117.555 92.2511 117.284 92.3817 116.938C92.5153 116.591 92.582 116.187 92.582 115.727C92.582 115.273 92.5167 114.875 92.386 114.534C92.2553 114.193 92.0636 113.928 91.8107 113.737C91.5579 113.547 91.2454 113.452 90.8732 113.452C90.4897 113.452 90.1701 113.551 89.9144 113.75C89.6587 113.949 89.4656 114.22 89.3349 114.564C89.207 114.908 89.1431 115.295 89.1431 115.727C89.1431 116.165 89.2085 116.558 89.3391 116.908C89.4698 117.257 89.663 117.534 89.9187 117.739C90.1772 117.94 90.4954 118.041 90.8732 118.041ZM99.6942 116.286V112.455H100.973V119H99.7198V117.866H99.6516C99.5011 118.216 99.2596 118.507 98.9272 118.74C98.5977 118.97 98.1871 119.085 97.6957 119.085C97.2752 119.085 96.9031 118.993 96.5792 118.808C96.2582 118.621 96.0053 118.344 95.8207 117.977C95.6388 117.611 95.5479 117.158 95.5479 116.618V112.455H96.8221V116.464C96.8221 116.911 96.9457 117.266 97.1928 117.53C97.44 117.794 97.761 117.926 98.1559 117.926C98.3945 117.926 98.6317 117.866 98.8675 117.747C99.1062 117.628 99.3036 117.447 99.4599 117.206C99.619 116.964 99.6971 116.658 99.6942 116.286ZM105.506 119.132C104.861 119.132 104.305 118.994 103.839 118.719C103.376 118.44 103.018 118.05 102.766 117.547C102.516 117.041 102.391 116.449 102.391 115.77C102.391 115.099 102.516 114.509 102.766 113.997C103.018 113.486 103.371 113.087 103.822 112.8C104.277 112.513 104.808 112.369 105.416 112.369C105.786 112.369 106.143 112.43 106.49 112.553C106.837 112.675 107.148 112.866 107.423 113.128C107.699 113.389 107.916 113.729 108.075 114.146C108.234 114.561 108.314 115.065 108.314 115.659V116.111H103.111V115.156H107.065C107.065 114.821 106.997 114.524 106.861 114.266C106.724 114.004 106.533 113.798 106.286 113.648C106.041 113.497 105.754 113.422 105.425 113.422C105.067 113.422 104.754 113.51 104.487 113.686C104.223 113.859 104.018 114.087 103.874 114.368C103.732 114.646 103.661 114.949 103.661 115.276V116.021C103.661 116.459 103.737 116.831 103.891 117.138C104.047 117.445 104.264 117.679 104.543 117.841C104.821 118 105.146 118.08 105.518 118.08C105.76 118.08 105.98 118.045 106.179 117.977C106.378 117.906 106.55 117.801 106.695 117.662C106.839 117.523 106.95 117.351 107.027 117.146L108.233 117.364C108.136 117.719 107.963 118.03 107.713 118.297C107.466 118.561 107.155 118.767 106.78 118.915C106.408 119.06 105.983 119.132 105.506 119.132ZM113.874 116.286V112.455H115.152V119H113.9V117.866H113.831C113.681 118.216 113.439 118.507 113.107 118.74C112.777 118.97 112.367 119.085 111.875 119.085C111.455 119.085 111.083 118.993 110.759 118.808C110.438 118.621 110.185 118.344 110 117.977C109.819 117.611 109.728 117.158 109.728 116.618V112.455H111.002V116.464C111.002 116.911 111.125 117.266 111.373 117.53C111.62 117.794 111.941 117.926 112.336 117.926C112.574 117.926 112.811 117.866 113.047 117.747C113.286 117.628 113.483 117.447 113.64 117.206C113.799 116.964 113.877 116.658 113.874 116.286ZM119.685 119.132C119.04 119.132 118.485 118.994 118.019 118.719C117.556 118.44 117.198 118.05 116.945 117.547C116.695 117.041 116.57 116.449 116.57 115.77C116.57 115.099 116.695 114.509 116.945 113.997C117.198 113.486 117.55 113.087 118.002 112.8C118.457 112.513 118.988 112.369 119.596 112.369C119.965 112.369 120.323 112.43 120.67 112.553C121.016 112.675 121.327 112.866 121.603 113.128C121.879 113.389 122.096 113.729 122.255 114.146C122.414 114.561 122.494 115.065 122.494 115.659V116.111H117.29V115.156H121.245C121.245 114.821 121.177 114.524 121.04 114.266C120.904 114.004 120.712 113.798 120.465 113.648C120.221 113.497 119.934 113.422 119.604 113.422C119.246 113.422 118.934 113.51 118.667 113.686C118.403 113.859 118.198 114.087 118.053 114.368C117.911 114.646 117.84 114.949 117.84 115.276V116.021C117.84 116.459 117.917 116.831 118.07 117.138C118.227 117.445 118.444 117.679 118.722 117.841C119.001 118 119.326 118.08 119.698 118.08C119.94 118.08 120.16 118.045 120.359 117.977C120.558 117.906 120.729 117.801 120.874 117.662C121.019 117.523 121.13 117.351 121.207 117.146L122.413 117.364C122.316 117.719 122.143 118.03 121.893 118.297C121.646 118.561 121.335 118.767 120.96 118.915C120.587 119.06 120.163 119.132 119.685 119.132ZM128.357 115.114V119H127.083V112.455H128.306V113.52H128.387C128.538 113.173 128.773 112.895 129.094 112.685C129.418 112.474 129.826 112.369 130.317 112.369C130.763 112.369 131.154 112.463 131.489 112.651C131.825 112.835 132.085 113.111 132.269 113.477C132.454 113.844 132.546 114.297 132.546 114.837V119H131.272V114.99C131.272 114.516 131.148 114.145 130.901 113.878C130.654 113.608 130.315 113.473 129.883 113.473C129.587 113.473 129.325 113.537 129.094 113.665C128.867 113.793 128.687 113.98 128.553 114.227C128.423 114.472 128.357 114.767 128.357 115.114ZM138.401 116.286V112.455H139.68V119H138.427V117.866H138.359C138.208 118.216 137.967 118.507 137.634 118.74C137.305 118.97 136.894 119.085 136.403 119.085C135.982 119.085 135.61 118.993 135.286 118.808C134.965 118.621 134.712 118.344 134.528 117.977C134.346 117.611 134.255 117.158 134.255 116.618V112.455H135.529V116.464C135.529 116.911 135.653 117.266 135.9 117.53C136.147 117.794 136.468 117.926 136.863 117.926C137.102 117.926 137.339 117.866 137.575 117.747C137.813 117.628 138.011 117.447 138.167 117.206C138.326 116.964 138.404 116.658 138.401 116.286ZM141.392 119V112.455H142.615V113.52H142.696C142.832 113.159 143.055 112.878 143.365 112.676C143.674 112.472 144.045 112.369 144.477 112.369C144.914 112.369 145.281 112.472 145.576 112.676C145.875 112.881 146.095 113.162 146.237 113.52H146.305C146.461 113.17 146.71 112.892 147.051 112.685C147.392 112.474 147.798 112.369 148.27 112.369C148.863 112.369 149.348 112.555 149.723 112.928C150.1 113.3 150.289 113.861 150.289 114.611V119H149.015V114.73C149.015 114.287 148.895 113.966 148.653 113.767C148.412 113.568 148.123 113.469 147.788 113.469C147.373 113.469 147.051 113.597 146.821 113.852C146.591 114.105 146.475 114.43 146.475 114.828V119H145.206V114.649C145.206 114.294 145.095 114.009 144.873 113.793C144.652 113.577 144.363 113.469 144.008 113.469C143.767 113.469 143.544 113.533 143.339 113.661C143.137 113.786 142.974 113.96 142.849 114.185C142.727 114.409 142.666 114.669 142.666 114.964V119H141.392ZM152.099 119V110.273H153.374V113.516H153.45C153.524 113.379 153.631 113.222 153.77 113.043C153.909 112.864 154.102 112.707 154.349 112.574C154.597 112.438 154.923 112.369 155.33 112.369C155.858 112.369 156.33 112.503 156.744 112.77C157.159 113.037 157.484 113.422 157.72 113.925C157.959 114.428 158.078 115.033 158.078 115.74C158.078 116.447 157.96 117.054 157.724 117.56C157.489 118.062 157.165 118.45 156.753 118.723C156.341 118.993 155.871 119.128 155.342 119.128C154.945 119.128 154.619 119.061 154.366 118.928C154.116 118.794 153.92 118.638 153.778 118.459C153.636 118.28 153.527 118.121 153.45 117.982H153.344V119H152.099ZM153.348 115.727C153.348 116.187 153.415 116.591 153.548 116.938C153.682 117.284 153.875 117.555 154.128 117.751C154.381 117.945 154.69 118.041 155.057 118.041C155.438 118.041 155.756 117.94 156.011 117.739C156.267 117.534 156.46 117.257 156.591 116.908C156.724 116.558 156.791 116.165 156.791 115.727C156.791 115.295 156.726 114.908 156.595 114.564C156.467 114.22 156.274 113.949 156.016 113.75C155.76 113.551 155.44 113.452 155.057 113.452C154.688 113.452 154.375 113.547 154.119 113.737C153.866 113.928 153.675 114.193 153.544 114.534C153.413 114.875 153.348 115.273 153.348 115.727ZM162.33 119.132C161.685 119.132 161.13 118.994 160.664 118.719C160.201 118.44 159.843 118.05 159.59 117.547C159.34 117.041 159.215 116.449 159.215 115.77C159.215 115.099 159.34 114.509 159.59 113.997C159.843 113.486 160.195 113.087 160.647 112.8C161.101 112.513 161.632 112.369 162.24 112.369C162.61 112.369 162.968 112.43 163.314 112.553C163.661 112.675 163.972 112.866 164.248 113.128C164.523 113.389 164.74 113.729 164.9 114.146C165.059 114.561 165.138 115.065 165.138 115.659V116.111H159.935V115.156H163.89C163.89 114.821 163.821 114.524 163.685 114.266C163.549 114.004 163.357 113.798 163.11 113.648C162.865 113.497 162.578 113.422 162.249 113.422C161.891 113.422 161.578 113.51 161.311 113.686C161.047 113.859 160.843 114.087 160.698 114.368C160.556 114.646 160.485 114.949 160.485 115.276V116.021C160.485 116.459 160.561 116.831 160.715 117.138C160.871 117.445 161.088 117.679 161.367 117.841C161.645 118 161.971 118.08 162.343 118.08C162.584 118.08 162.804 118.045 163.003 117.977C163.202 117.906 163.374 117.801 163.519 117.662C163.664 117.523 163.775 117.351 163.851 117.146L165.057 117.364C164.961 117.719 164.787 118.03 164.537 118.297C164.29 118.561 163.979 118.767 163.604 118.915C163.232 119.06 162.807 119.132 162.33 119.132ZM166.552 119V112.455H167.783V113.494H167.852C167.971 113.142 168.181 112.865 168.482 112.663C168.786 112.459 169.13 112.357 169.513 112.357C169.593 112.357 169.687 112.359 169.795 112.365C169.906 112.371 169.992 112.378 170.055 112.386V113.605C170.004 113.591 169.913 113.575 169.782 113.558C169.651 113.538 169.521 113.528 169.39 113.528C169.089 113.528 168.82 113.592 168.585 113.72C168.352 113.845 168.167 114.02 168.031 114.244C167.894 114.466 167.826 114.719 167.826 115.003V119H166.552ZM174.333 119V112.455H175.607V119H174.333ZM174.977 111.445C174.755 111.445 174.565 111.371 174.406 111.223C174.249 111.072 174.171 110.893 174.171 110.686C174.171 110.476 174.249 110.297 174.406 110.149C174.565 109.999 174.755 109.923 174.977 109.923C175.198 109.923 175.387 109.999 175.543 110.149C175.702 110.297 175.782 110.476 175.782 110.686C175.782 110.893 175.702 111.072 175.543 111.223C175.387 111.371 175.198 111.445 174.977 111.445ZM182.226 114.053L181.071 114.257C181.023 114.109 180.946 113.969 180.841 113.835C180.739 113.702 180.6 113.592 180.424 113.507C180.248 113.422 180.027 113.379 179.763 113.379C179.402 113.379 179.101 113.46 178.86 113.622C178.618 113.781 178.498 113.987 178.498 114.24C178.498 114.459 178.578 114.635 178.74 114.768C178.902 114.902 179.164 115.011 179.525 115.097L180.564 115.335C181.167 115.474 181.615 115.689 181.911 115.979C182.206 116.268 182.354 116.645 182.354 117.108C182.354 117.5 182.24 117.849 182.013 118.156C181.789 118.46 181.475 118.699 181.071 118.872C180.671 119.045 180.206 119.132 179.678 119.132C178.945 119.132 178.347 118.976 177.884 118.663C177.421 118.348 177.137 117.901 177.032 117.321L178.263 117.134C178.34 117.455 178.498 117.697 178.736 117.862C178.975 118.024 179.286 118.105 179.669 118.105C180.087 118.105 180.421 118.018 180.671 117.845C180.921 117.669 181.046 117.455 181.046 117.202C181.046 116.997 180.969 116.825 180.816 116.686C180.665 116.547 180.434 116.442 180.121 116.371L179.013 116.128C178.402 115.989 177.951 115.767 177.658 115.463C177.368 115.159 177.223 114.774 177.223 114.308C177.223 113.922 177.331 113.584 177.547 113.294C177.763 113.004 178.061 112.778 178.442 112.616C178.823 112.452 179.259 112.369 179.75 112.369C180.458 112.369 181.015 112.523 181.421 112.83C181.827 113.134 182.096 113.541 182.226 114.053ZM190.225 110.273V119H188.904V111.594H188.853L186.765 112.957V111.696L188.942 110.273H190.225ZM195.488 110.153C195.877 110.156 196.26 110.227 196.638 110.366C197.016 110.506 197.357 110.733 197.661 111.048C197.968 111.364 198.212 111.79 198.394 112.327C198.578 112.861 198.672 113.526 198.675 114.321C198.675 115.085 198.598 115.766 198.445 116.362C198.292 116.956 198.071 117.457 197.784 117.866C197.5 118.276 197.155 118.587 196.749 118.8C196.343 119.013 195.885 119.119 195.377 119.119C194.857 119.119 194.395 119.017 193.992 118.812C193.588 118.608 193.26 118.325 193.007 117.964C192.755 117.601 192.597 117.183 192.534 116.712H193.834C193.919 117.087 194.093 117.391 194.354 117.624C194.618 117.854 194.959 117.969 195.377 117.969C196.016 117.969 196.515 117.69 196.873 117.134C197.23 116.574 197.411 115.793 197.414 114.79H197.346C197.198 115.034 197.013 115.244 196.792 115.42C196.573 115.597 196.327 115.733 196.054 115.83C195.782 115.926 195.49 115.974 195.181 115.974C194.678 115.974 194.221 115.851 193.809 115.604C193.397 115.357 193.069 115.017 192.824 114.585C192.58 114.153 192.458 113.661 192.458 113.107C192.458 112.555 192.583 112.055 192.833 111.607C193.086 111.158 193.438 110.803 193.89 110.541C194.344 110.277 194.877 110.148 195.488 110.153ZM195.492 111.261C195.159 111.261 194.86 111.344 194.593 111.509C194.328 111.67 194.12 111.891 193.966 112.169C193.813 112.445 193.736 112.751 193.736 113.089C193.736 113.428 193.81 113.734 193.958 114.01C194.108 114.283 194.313 114.5 194.571 114.662C194.833 114.821 195.131 114.901 195.466 114.901C195.716 114.901 195.949 114.852 196.165 114.756C196.381 114.659 196.57 114.526 196.732 114.355C196.894 114.182 197.02 113.986 197.111 113.767C197.202 113.548 197.248 113.318 197.248 113.077C197.248 112.756 197.171 112.457 197.017 112.182C196.867 111.906 196.659 111.685 196.395 111.517C196.131 111.347 195.83 111.261 195.492 111.261ZM200.755 119.081C200.522 119.081 200.321 118.999 200.154 118.834C199.986 118.666 199.902 118.464 199.902 118.229C199.902 117.996 199.986 117.797 200.154 117.632C200.321 117.464 200.522 117.381 200.755 117.381C200.988 117.381 201.188 117.464 201.355 117.632C201.523 117.797 201.607 117.996 201.607 118.229C201.607 118.385 201.567 118.528 201.488 118.659C201.411 118.787 201.309 118.889 201.181 118.966C201.053 119.043 200.911 119.081 200.755 119.081Z" fill="white"/>
</g>
<g filter="url(#filter2_bd_41_89)">
<rect x="22" y="150" width="140" height="56" rx="8" fill="white" fill-opacity="0.3" shape-rendering="crispEdges"/>
<rect x="22.5" y="150.5" width="139" height="55" rx="7.5" stroke="#E5E5E5" stroke-opacity="0.5" shape-rendering="crispEdges"/>
<rect x="10" y="138" width="24" height="24" rx="12" fill="#57C82B"/>
<path fill-rule="evenodd" clip-rule="evenodd" d="M18.6673 155.775L16.4485 156.368C15.953 156.501 15.4996 156.048 15.6322 155.552L16.2259 153.333C15.6586 152.353 15.334 151.214 15.334 150C15.334 146.318 18.3188 143.333 22.0007 143.333C25.6826 143.333 28.6673 146.318 28.6673 150C28.6673 153.682 25.6826 156.667 22.0007 156.667C20.7864 156.667 19.6479 156.342 18.6673 155.775ZM20.1967 146.833C19.4778 146.833 18.7594 147.445 18.9334 148.291C19.0577 148.895 19.2932 149.478 19.6097 150.017C20.1778 150.984 21.0167 151.823 21.9836 152.391C22.5222 152.707 23.1058 152.943 23.7099 153.067C24.5554 153.241 25.1673 152.523 25.1673 151.804C25.1673 151.051 24.5572 150.441 23.8046 150.441H23.669C23.2717 150.441 22.8906 150.599 22.6096 150.88L22.1667 151.323C21.5883 150.926 21.0748 150.412 20.6777 149.834L21.1206 149.391C21.4016 149.11 21.5595 148.729 21.5595 148.332V148.196C21.5595 147.443 20.9494 146.833 20.1967 146.833Z" fill="white"/>
<path d="M34.9588 164.273H36.5568L39.3352 171.057H39.4375L42.2159 164.273H43.8139V173H42.5611V166.685H42.4801L39.9062 172.987H38.8665L36.2926 166.68H36.2116V173H34.9588V164.273ZM46.4315 175.455C46.2411 175.455 46.0678 175.439 45.9116 175.408C45.7553 175.379 45.6388 175.348 45.5621 175.314L45.869 174.27C46.1019 174.332 46.3093 174.359 46.4911 174.351C46.6729 174.342 46.8335 174.274 46.9727 174.146C47.1147 174.018 47.2397 173.81 47.3477 173.52L47.5053 173.085L45.1104 166.455H46.4741L48.1317 171.534H48.1999L49.8576 166.455H51.2255L48.5281 173.874C48.4031 174.214 48.244 174.503 48.0508 174.739C47.8576 174.977 47.6275 175.156 47.3604 175.276C47.0934 175.395 46.7837 175.455 46.4315 175.455ZM58.4197 173.132C57.7749 173.132 57.2195 172.994 56.7536 172.719C56.2905 172.44 55.9325 172.05 55.6797 171.547C55.4297 171.041 55.3047 170.449 55.3047 169.77C55.3047 169.099 55.4297 168.509 55.6797 167.997C55.9325 167.486 56.2848 167.087 56.7365 166.8C57.1911 166.513 57.7223 166.369 58.3303 166.369C58.6996 166.369 59.0575 166.43 59.4041 166.553C59.7507 166.675 60.0618 166.866 60.3374 167.128C60.6129 167.389 60.8303 167.729 60.9893 168.146C61.1484 168.561 61.228 169.065 61.228 169.659V170.111H56.0249V169.156H59.9794C59.9794 168.821 59.9112 168.524 59.7749 168.266C59.6385 168.004 59.4467 167.798 59.1996 167.648C58.9553 167.497 58.6683 167.422 58.3388 167.422C57.9808 167.422 57.6683 167.51 57.4013 167.686C57.1371 167.859 56.9325 168.087 56.7876 168.368C56.6456 168.646 56.5746 168.949 56.5746 169.276V170.021C56.5746 170.459 56.6513 170.831 56.8047 171.138C56.9609 171.445 57.1783 171.679 57.4567 171.841C57.7351 172 58.0604 172.08 58.4325 172.08C58.674 172.08 58.8942 172.045 59.093 171.977C59.2919 171.906 59.4638 171.801 59.6087 171.662C59.7536 171.523 59.8643 171.351 59.9411 171.146L61.147 171.364C61.0504 171.719 60.8771 172.03 60.6271 172.297C60.38 172.561 60.0689 172.767 59.6939 172.915C59.3217 173.06 58.897 173.132 58.4197 173.132ZM63.495 166.455L64.9396 169.003L66.397 166.455H67.7905L65.7493 169.727L67.8075 173H66.4141L64.9396 170.554L63.4695 173H62.0717L64.1087 169.727L62.0973 166.455H63.495ZM69.0987 175.455V166.455H70.343V167.516H70.4496C70.5234 167.379 70.63 167.222 70.7692 167.043C70.9084 166.864 71.1016 166.707 71.3487 166.574C71.5959 166.438 71.9226 166.369 72.3288 166.369C72.8572 166.369 73.3288 166.503 73.7436 166.77C74.1584 167.037 74.4837 167.422 74.7195 167.925C74.9581 168.428 75.0774 169.033 75.0774 169.74C75.0774 170.447 74.9595 171.054 74.7237 171.56C74.4879 172.062 74.1641 172.45 73.7521 172.723C73.3402 172.993 72.87 173.128 72.3416 173.128C71.9439 173.128 71.6186 173.061 71.3658 172.928C71.1158 172.794 70.9197 172.638 70.7777 172.459C70.6357 172.28 70.5263 172.121 70.4496 171.982H70.3729V175.455H69.0987ZM70.3473 169.727C70.3473 170.187 70.4141 170.591 70.5476 170.938C70.6811 171.284 70.8743 171.555 71.1271 171.751C71.38 171.945 71.6896 172.041 72.0561 172.041C72.4368 172.041 72.755 171.94 73.0107 171.739C73.2663 171.534 73.4595 171.257 73.5902 170.908C73.7237 170.558 73.7905 170.165 73.7905 169.727C73.7905 169.295 73.7251 168.908 73.5945 168.564C73.4666 168.22 73.2734 167.949 73.0149 167.75C72.7592 167.551 72.4396 167.452 72.0561 167.452C71.6868 167.452 71.3743 167.547 71.1186 167.737C70.8658 167.928 70.674 168.193 70.5433 168.534C70.4126 168.875 70.3473 169.273 70.3473 169.727ZM79.326 173.132C78.6811 173.132 78.1257 172.994 77.6598 172.719C77.1967 172.44 76.8388 172.05 76.5859 171.547C76.3359 171.041 76.2109 170.449 76.2109 169.77C76.2109 169.099 76.3359 168.509 76.5859 167.997C76.8388 167.486 77.1911 167.087 77.6428 166.8C78.0973 166.513 78.6286 166.369 79.2365 166.369C79.6058 166.369 79.9638 166.43 80.3104 166.553C80.657 166.675 80.968 166.866 81.2436 167.128C81.5192 167.389 81.7365 167.729 81.8956 168.146C82.0547 168.561 82.1342 169.065 82.1342 169.659V170.111H76.9311V169.156H80.8857C80.8857 168.821 80.8175 168.524 80.6811 168.266C80.5447 168.004 80.353 167.798 80.1058 167.648C79.8615 167.497 79.5746 167.422 79.245 167.422C78.8871 167.422 78.5746 167.51 78.3075 167.686C78.0433 167.859 77.8388 168.087 77.6939 168.368C77.5518 168.646 77.4808 168.949 77.4808 169.276V170.021C77.4808 170.459 77.5575 170.831 77.7109 171.138C77.8672 171.445 78.0845 171.679 78.3629 171.841C78.6413 172 78.9666 172.08 79.3388 172.08C79.5803 172.08 79.8004 172.045 79.9993 171.977C80.1982 171.906 80.37 171.801 80.5149 171.662C80.6598 171.523 80.7706 171.351 80.8473 171.146L82.0533 171.364C81.9567 171.719 81.7834 172.03 81.5334 172.297C81.2862 172.561 80.9751 172.767 80.6001 172.915C80.228 173.06 79.8033 173.132 79.326 173.132ZM83.5479 173V166.455H84.7795V167.494H84.8477C84.967 167.142 85.1772 166.865 85.4783 166.663C85.7823 166.459 86.1261 166.357 86.5096 166.357C86.5891 166.357 86.6829 166.359 86.7908 166.365C86.9016 166.371 86.9883 166.378 87.0508 166.386V167.605C86.9996 167.591 86.9087 167.575 86.7781 167.558C86.6474 167.538 86.5167 167.528 86.386 167.528C86.0849 167.528 85.8164 167.592 85.5806 167.72C85.3477 167.845 85.163 168.02 85.0266 168.244C84.8903 168.466 84.8221 168.719 84.8221 169.003V173H83.5479ZM88.1534 173V166.455H89.4276V173H88.1534ZM88.7969 165.445C88.5753 165.445 88.3849 165.371 88.2259 165.223C88.0696 165.072 87.9915 164.893 87.9915 164.686C87.9915 164.476 88.0696 164.297 88.2259 164.149C88.3849 163.999 88.5753 163.923 88.7969 163.923C89.0185 163.923 89.2074 163.999 89.3636 164.149C89.5227 164.297 89.6023 164.476 89.6023 164.686C89.6023 164.893 89.5227 165.072 89.3636 165.223C89.2074 165.371 89.0185 165.445 88.7969 165.445ZM93.9627 173.132C93.3178 173.132 92.7624 172.994 92.2965 172.719C91.8335 172.44 91.4755 172.05 91.2227 171.547C90.9727 171.041 90.8477 170.449 90.8477 169.77C90.8477 169.099 90.9727 168.509 91.2227 167.997C91.4755 167.486 91.8278 167.087 92.2795 166.8C92.734 166.513 93.2653 166.369 93.8732 166.369C94.2425 166.369 94.6005 166.43 94.9471 166.553C95.2937 166.675 95.6048 166.866 95.8803 167.128C96.1559 167.389 96.3732 167.729 96.5323 168.146C96.6914 168.561 96.771 169.065 96.771 169.659V170.111H91.5678V169.156H95.5224C95.5224 168.821 95.4542 168.524 95.3178 168.266C95.1815 168.004 94.9897 167.798 94.7425 167.648C94.4982 167.497 94.2113 167.422 93.8817 167.422C93.5238 167.422 93.2113 167.51 92.9442 167.686C92.68 167.859 92.4755 168.087 92.3306 168.368C92.1886 168.646 92.1175 168.949 92.1175 169.276V170.021C92.1175 170.459 92.1942 170.831 92.3477 171.138C92.5039 171.445 92.7212 171.679 92.9996 171.841C93.2781 172 93.6033 172.08 93.9755 172.08C94.217 172.08 94.4371 172.045 94.636 171.977C94.8349 171.906 95.0067 171.801 95.1516 171.662C95.2965 171.523 95.4073 171.351 95.484 171.146L96.69 171.364C96.5934 171.719 96.4201 172.03 96.1701 172.297C95.9229 172.561 95.6119 172.767 95.2369 172.915C94.8647 173.06 94.44 173.132 93.9627 173.132ZM99.4588 169.114V173H98.1847V166.455H99.4077V167.52H99.4886C99.6392 167.173 99.875 166.895 100.196 166.685C100.52 166.474 100.928 166.369 101.419 166.369C101.865 166.369 102.256 166.463 102.591 166.651C102.926 166.835 103.186 167.111 103.371 167.477C103.555 167.844 103.648 168.297 103.648 168.837V173H102.374V168.99C102.374 168.516 102.25 168.145 102.003 167.878C101.756 167.608 101.416 167.473 100.984 167.473C100.689 167.473 100.426 167.537 100.196 167.665C99.9688 167.793 99.7884 167.98 99.6548 168.227C99.5241 168.472 99.4588 168.767 99.4588 169.114ZM108.114 173.132C107.48 173.132 106.935 172.989 106.477 172.702C106.023 172.412 105.673 172.013 105.429 171.504C105.185 170.996 105.062 170.413 105.062 169.757C105.062 169.092 105.188 168.506 105.438 167.997C105.688 167.486 106.04 167.087 106.494 166.8C106.949 166.513 107.484 166.369 108.101 166.369C108.598 166.369 109.041 166.462 109.43 166.646C109.82 166.828 110.134 167.084 110.372 167.413C110.614 167.743 110.757 168.128 110.803 168.568H109.562C109.494 168.261 109.338 167.997 109.094 167.776C108.852 167.554 108.528 167.443 108.122 167.443C107.767 167.443 107.456 167.537 107.189 167.724C106.925 167.909 106.719 168.173 106.571 168.517C106.423 168.858 106.349 169.261 106.349 169.727C106.349 170.205 106.422 170.616 106.567 170.963C106.712 171.31 106.916 171.578 107.18 171.768C107.447 171.959 107.761 172.054 108.122 172.054C108.364 172.054 108.582 172.01 108.778 171.922C108.977 171.831 109.143 171.702 109.277 171.534C109.413 171.366 109.509 171.165 109.562 170.929H110.803C110.757 171.352 110.619 171.73 110.389 172.062C110.159 172.395 109.851 172.656 109.464 172.847C109.081 173.037 108.631 173.132 108.114 173.132ZM114.986 173.132C114.341 173.132 113.786 172.994 113.32 172.719C112.857 172.44 112.499 172.05 112.246 171.547C111.996 171.041 111.871 170.449 111.871 169.77C111.871 169.099 111.996 168.509 112.246 167.997C112.499 167.486 112.851 167.087 113.303 166.8C113.757 166.513 114.289 166.369 114.897 166.369C115.266 166.369 115.624 166.43 115.971 166.553C116.317 166.675 116.628 166.866 116.904 167.128C117.179 167.389 117.397 167.729 117.556 168.146C117.715 168.561 117.794 169.065 117.794 169.659V170.111H112.591V169.156H116.546C116.546 168.821 116.478 168.524 116.341 168.266C116.205 168.004 116.013 167.798 115.766 167.648C115.522 167.497 115.235 167.422 114.905 167.422C114.547 167.422 114.235 167.51 113.968 167.686C113.703 167.859 113.499 168.087 113.354 168.368C113.212 168.646 113.141 168.949 113.141 169.276V170.021C113.141 170.459 113.218 170.831 113.371 171.138C113.527 171.445 113.745 171.679 114.023 171.841C114.301 172 114.627 172.08 114.999 172.08C115.24 172.08 115.461 172.045 115.659 171.977C115.858 171.906 116.03 171.801 116.175 171.662C116.32 171.523 116.431 171.351 116.507 171.146L117.713 171.364C117.617 171.719 117.444 172.03 117.194 172.297C116.946 172.561 116.635 172.767 116.26 172.915C115.888 173.06 115.463 173.132 114.986 173.132ZM123.803 173L121.877 166.455H123.194L124.476 171.261H124.54L125.827 166.455H127.144L128.422 171.24H128.486L129.76 166.455H131.077L129.155 173H127.855L126.526 168.274H126.428L125.098 173H123.803ZM134.191 173.145C133.776 173.145 133.401 173.068 133.066 172.915C132.731 172.759 132.465 172.533 132.269 172.237C132.076 171.942 131.979 171.58 131.979 171.151C131.979 170.781 132.05 170.477 132.192 170.239C132.335 170 132.526 169.811 132.768 169.672C133.009 169.533 133.279 169.428 133.577 169.357C133.876 169.286 134.18 169.232 134.489 169.195C134.881 169.149 135.2 169.112 135.444 169.084C135.688 169.053 135.866 169.003 135.977 168.935C136.087 168.866 136.143 168.756 136.143 168.602V168.572C136.143 168.2 136.038 167.912 135.827 167.707C135.62 167.503 135.31 167.401 134.898 167.401C134.469 167.401 134.131 167.496 133.884 167.686C133.64 167.874 133.471 168.082 133.377 168.312L132.18 168.04C132.322 167.642 132.529 167.321 132.802 167.077C133.077 166.83 133.394 166.651 133.752 166.54C134.11 166.426 134.487 166.369 134.881 166.369C135.143 166.369 135.42 166.401 135.712 166.463C136.008 166.523 136.283 166.634 136.539 166.795C136.798 166.957 137.009 167.189 137.174 167.49C137.339 167.788 137.421 168.176 137.421 168.653V173H136.177V172.105H136.126C136.043 172.27 135.92 172.432 135.755 172.591C135.59 172.75 135.379 172.882 135.12 172.987C134.862 173.092 134.552 173.145 134.191 173.145ZM134.468 172.122C134.82 172.122 135.121 172.053 135.371 171.913C135.624 171.774 135.816 171.592 135.947 171.368C136.08 171.141 136.147 170.898 136.147 170.639V169.795C136.102 169.841 136.013 169.884 135.883 169.923C135.755 169.96 135.609 169.993 135.444 170.021C135.279 170.047 135.119 170.071 134.962 170.094C134.806 170.114 134.675 170.131 134.57 170.145C134.323 170.176 134.097 170.229 133.893 170.303C133.691 170.376 133.529 170.483 133.407 170.622C133.288 170.759 133.228 170.94 133.228 171.168C133.228 171.483 133.344 171.722 133.577 171.884C133.81 172.043 134.107 172.122 134.468 172.122ZM144.023 168.053L142.868 168.257C142.82 168.109 142.743 167.969 142.638 167.835C142.536 167.702 142.397 167.592 142.221 167.507C142.044 167.422 141.824 167.379 141.56 167.379C141.199 167.379 140.898 167.46 140.657 167.622C140.415 167.781 140.294 167.987 140.294 168.24C140.294 168.459 140.375 168.635 140.537 168.768C140.699 168.902 140.961 169.011 141.321 169.097L142.361 169.335C142.963 169.474 143.412 169.689 143.708 169.979C144.003 170.268 144.151 170.645 144.151 171.108C144.151 171.5 144.037 171.849 143.81 172.156C143.586 172.46 143.272 172.699 142.868 172.872C142.468 173.045 142.003 173.132 141.475 173.132C140.742 173.132 140.144 172.976 139.681 172.663C139.218 172.348 138.934 171.901 138.828 171.321L140.06 171.134C140.137 171.455 140.294 171.697 140.533 171.862C140.772 172.024 141.083 172.105 141.466 172.105C141.884 172.105 142.218 172.018 142.468 171.845C142.718 171.669 142.843 171.455 142.843 171.202C142.843 170.997 142.766 170.825 142.613 170.686C142.462 170.547 142.23 170.442 141.918 170.371L140.81 170.128C140.199 169.989 139.748 169.767 139.455 169.463C139.165 169.159 139.02 168.774 139.02 168.308C139.02 167.922 139.128 167.584 139.344 167.294C139.56 167.004 139.858 166.778 140.239 166.616C140.62 166.452 141.056 166.369 141.547 166.369C142.255 166.369 142.811 166.523 143.218 166.83C143.624 167.134 143.892 167.541 144.023 168.053ZM34 191.84H46V179.84H34V191.84ZM46 191.84H58V179.84H46V191.84ZM58 191.84H70V179.84H58V191.84ZM70 191.84H82V179.84H70V191.84ZM82 191.84H94V179.84H82V191.84ZM96.4631 182.273L96.3523 188.49H95.1719L95.0611 182.273H96.4631ZM95.7642 191.081C95.5284 191.081 95.3267 190.999 95.1591 190.834C94.9915 190.666 94.9091 190.464 94.9119 190.229C94.9091 189.996 94.9915 189.797 95.1591 189.632C95.3267 189.464 95.5284 189.381 95.7642 189.381C95.9943 189.381 96.1932 189.464 96.3608 189.632C96.5284 189.797 96.6136 189.996 96.6165 190.229C96.6136 190.385 96.5724 190.528 96.4929 190.659C96.4162 190.787 96.3139 190.889 96.1861 190.966C96.0582 191.043 95.9176 191.081 95.7642 191.081Z" fill="white"/>
</g>
<defs>
<filter id="filter0_bd_41_89" x="-30" y="-28" width="232" height="148" filterUnits="userSpaceOnUse" color-interpolation-filters="sRGB">
<feFlood flood-opacity="0" result="BackgroundImageFix"/>
<feGaussianBlur in="BackgroundImageFix" stdDeviation="20"/>
<feComposite in2="SourceAlpha" operator="in" result="effect1_backgroundBlur_41_89"/>
<feColorMatrix in="SourceAlpha" type="matrix" values="0 0 0 0 0 0 0 0 0 0 0 0 0 0 0 0 0 0 127 0" result="hardAlpha"/>
<feOffset/>
<feGaussianBlur stdDeviation="5"/>
<feComposite in2="hardAlpha" operator="out"/>
<feColorMatrix type="matrix" values="0 0 0 0 0 0 0 0 0 0 0 0 0 0 0 0 0 0 0.05 0"/>
<feBlend mode="normal" in2="effect1_backgroundBlur_41_89" result="effect2_dropShadow_41_89"/>
<feBlend mode="normal" in="SourceGraphic" in2="effect2_dropShadow_41_89" result="shape"/>
</filter>
<filter id="filter1_bd_41_89" x="6" y="46" width="261" height="128" filterUnits="userSpaceOnUse" color-interpolation-filters="sRGB">
<feFlood flood-opacity="0" result="BackgroundImageFix"/>
<feGaussianBlur in="BackgroundImageFix" stdDeviation="20"/>
<feComposite in2="SourceAlpha" operator="in" result="effect1_backgroundBlur_41_89"/>
<feColorMatrix in="SourceAlpha" type="matrix" values="0 0 0 0 0 0 0 0 0 0 0 0 0 0 0 0 0 0 127 0" result="hardAlpha"/>
<feOffset/>
<feGaussianBlur stdDeviation="5"/>
<feComposite in2="hardAlpha" operator="out"/>
<feColorMatrix type="matrix" values="0 0 0 0 0 0 0 0 0 0 0 0 0 0 0 0 0 0 0.05 0"/>
<feBlend mode="normal" in2="effect1_backgroundBlur_41_89" result="effect2_dropShadow_41_89"/>
<feBlend mode="normal" in="SourceGraphic" in2="effect2_dropShadow_41_89" result="shape"/>
</filter>
<filter id="filter2_bd_41_89" x="-30" y="98" width="232" height="148" filterUnits="userSpaceOnUse" color-interpolation-filters="sRGB">
<feFlood flood-opacity="0" result="BackgroundImageFix"/>
<feGaussianBlur in="BackgroundImageFix" stdDeviation="20"/>
<feComposite in2="SourceAlpha" operator="in" result="effect1_backgroundBlur_41_89"/>
<feColorMatrix in="SourceAlpha" type="matrix" values="0 0 0 0 0 0 0 0 0 0 0 0 0 0 0 0 0 0 127 0" result="hardAlpha"/>
<feOffset/>
<feGaussianBlur stdDeviation="5"/>
<feComposite in2="hardAlpha" operator="out"/>
<feColorMatrix type="matrix" values="0 0 0 0 0 0 0 0 0 0 0 0 0 0 0 0 0 0 0.05 0"/>
<feBlend mode="normal" in2="effect1_backgroundBlur_41_89" result="effect2_dropShadow_41_89"/>
<feBlend mode="normal" in="SourceGraphic" in2="effect2_dropShadow_41_89" result="shape"/>
</filter>
</defs>
</svg>
