<svg width="26" height="26" viewBox="0 0 26 26" fill="none" xmlns="http://www.w3.org/2000/svg">
<path fill-rule="evenodd" clip-rule="evenodd" d="M10.068 7.85425C8.89964 7.85425 7.73224 8.84855 8.01503 10.2226C8.21707 11.2042 8.59973 12.1525 9.11405 13.0278C10.0372 14.599 11.4004 15.9622 12.9716 16.8854C13.8469 17.3997 14.7952 17.7824 15.7768 17.9844C17.1509 18.2672 18.1452 17.0998 18.1452 15.9315C18.1452 14.7084 17.1537 13.717 15.9307 13.717H15.7105C15.0648 13.717 14.4455 13.9735 13.9889 14.4301L13.2692 15.1499C12.3293 14.5046 11.4948 13.6702 10.8496 12.7303L11.5693 12.0105C12.0259 11.5539 12.2824 10.9347 12.2824 10.2889V10.0687C12.2824 8.8457 11.291 7.85425 10.068 7.85425ZM16.1044 16.3928C15.6486 16.2989 15.1949 16.1551 14.7505 15.9666L15.138 15.5791C15.2898 15.4273 15.4958 15.342 15.7105 15.342H15.9307C16.2563 15.342 16.5202 15.6059 16.5202 15.9315C16.5202 16.0991 16.451 16.2359 16.3658 16.3157C16.2888 16.3878 16.2041 16.4133 16.1044 16.3928ZM10.4203 10.8615L10.0328 11.2489C9.84431 10.8045 9.70048 10.3508 9.60667 9.89501C9.58616 9.79537 9.61165 9.71061 9.68372 9.63361C9.76349 9.54839 9.9003 9.47925 10.068 9.47925C10.3935 9.47925 10.6574 9.74316 10.6574 10.0687V10.2889C10.6574 10.5037 10.5721 10.7096 10.4203 10.8615Z" fill="white"/>
<path fill-rule="evenodd" clip-rule="evenodd" d="M3.97714 23.3488L7.58268 22.3841C9.17612 23.3059 11.0261 23.8334 12.9993 23.8334C18.9824 23.8334 23.8327 18.9832 23.8327 13.0001C23.8327 7.017 18.9824 2.16675 12.9993 2.16675C7.01626 2.16675 2.16602 7.017 2.16602 13.0001C2.16602 14.9733 2.69357 16.8233 3.61532 18.4167L2.65061 22.0223C2.43514 22.8276 3.17186 23.5643 3.97714 23.3488ZM5.3592 18.1861L5.02193 17.6031C4.2394 16.2503 3.79102 14.68 3.79102 13.0001C3.79102 7.91446 7.91373 3.79175 12.9993 3.79175C18.085 3.79175 22.2077 7.91446 22.2077 13.0001C22.2077 18.0857 18.085 22.2084 12.9993 22.2084C11.3194 22.2084 9.74913 21.76 8.39636 20.9775L7.81333 20.6402L4.46268 21.5367L5.3592 18.1861Z" fill="white"/>
</svg>
